<svg width="14" height="14" fill="none" xmlns="http://www.w3.org/2000/svg"><path d="M13.75 4.25c-.03-.7-.14-1.2-.3-1.61a3.25 3.25 0 0 0-.78-1.19c-.33-.34-.73-.6-1.18-.77-.42-.16-.9-.27-1.61-.3A45.5 45.5 0 0 0 7.13.32c-1.81 0-2.04.01-2.75.04s-1.2.15-1.62.31c-.45.17-.85.43-1.18.77-.34.34-.6.74-.77 1.18-.16.43-.28.91-.31 1.62C.47 4.96.46 5.2.46 7s0 2.04.04 2.75c.03.7.14 1.2.3 1.62.18.44.44.85.78 1.18.33.34.74.6 1.18.77.42.16.9.28 1.62.3.7.04.93.05 2.74.05s2.04-.01 2.75-.04 1.2-.15 1.62-.31c.9-.35 1.6-1.06 1.95-1.95.16-.43.28-.91.31-1.62.03-.71.04-.94.04-2.75 0-1.8 0-2.04-.04-2.75Zm-1.2 5.45c-.02.65-.13 1-.23 1.23a2.21 2.21 0 0 1-1.26 1.27c-.24.1-.59.2-1.24.23-.7.03-.91.04-2.7.04-1.77 0-1.98 0-2.68-.04-.66-.03-1-.14-1.24-.23-.3-.1-.55-.28-.77-.5-.22-.21-.39-.47-.5-.76-.09-.24-.2-.6-.22-1.24-.04-.7-.04-.91-.04-2.7 0-1.77 0-1.99.04-2.69.02-.65.13-1 .22-1.23.11-.3.28-.56.5-.77.22-.22.48-.4.77-.5.24-.09.59-.2 1.24-.23.7-.03.91-.04 2.7-.04 1.77 0 1.98.01 2.68.04.66.03 1 .14 1.24.23.3.1.55.28.77.5.22.22.39.48.5.77.09.23.2.58.22 1.23.04.7.04.92.04 2.7 0 1.78 0 1.98-.04 2.69Z" fill="#fff"/><path d="M7.13 3.58a3.43 3.43 0 1 0 0 6.85 3.43 3.43 0 0 0 0-6.85Zm0 5.64a2.22 2.22 0 1 1 0-4.44 2.22 2.22 0 0 1 0 4.44ZM11.49 3.44a.8.8 0 1 1-1.6 0 .8.8 0 0 1 1.6 0Z" fill="#fff"/></svg>