<svg width="23" height="23" fill="none" xmlns="http://www.w3.org/2000/svg"><g clip-path="url(#a)"><path fill-rule="evenodd" clip-rule="evenodd" d="M5.5536 10.2906c0-.62204.12252-1.23801.36057-1.81272.23806-.57471.58698-1.09691 1.02684-1.53677.43986-.43986.96206-.78878 1.53677-1.02683.57471-.23806 1.19068-.36058 1.81272-.36058.6221 0 1.238.12252 1.8128.36058.5747.23805 1.0969.58697 1.5367 1.02683.4399.43986.7888.96206 1.0269 1.53677.238.57471.3605 1.19068.3605 1.81272 0 1.2563-.499 2.4612-1.3874 3.3495-.8883.8884-2.0932 1.3874-3.3495 1.3874-1.25629 0-2.46115-.499-3.34949-1.3874-.88835-.8883-1.38741-2.0932-1.38741-3.3495Zm4.7369-7.89485c-1.23106.00013-2.44504.28816-3.54497.84107-1.09992.55291-2.0553 1.35539-2.78982 2.34333-.73452.98793-1.22783 2.13396-1.44051 3.34652-.21269 1.21253-.13886 2.45803.21559 3.63703.35444 1.1789.97968 2.2586 1.82578 3.1529.84609.8942 1.88958 1.5782 3.04712 1.9973 1.15754.4191 2.39701.5617 3.61951.4164 1.2225-.1453 2.394-.5745 3.4211-1.2533l5.0558 5.057c.2963.2962.698.4626 1.1169.4626.4189 0 .8207-.1664 1.1169-.4626s.4626-.698.4626-1.1169c0-.4189-.1664-.8206-.4626-1.1169l-5.057-5.0558c.7867-1.1899 1.2362-2.5707 1.3009-3.9957.0647-1.42492-.2579-2.84078-.9334-4.09708s-1.6788-2.30611-2.9033-3.03786c-1.2244-.73175-2.6242-1.11811-4.0506-1.11801Z" fill="#fff"/></g><defs><clipPath id="a"><path fill="#fff" d="M0 0h23v23H0z"/></clipPath></defs></svg>