<svg width="20" height="21" fill="none" xmlns="http://www.w3.org/2000/svg"><path d="M17.5821 13.1547c-.9726-.12-1.9384-.2902-2.8936-.5098-.2331-.0779-.4825-.0944-.7239-.0477s-.4666.1549-.654.3141c-.2434.248-.9461.9416-1.6764 1.6581-2.61653-1.2863-4.7326-3.404-6.01684-6.02147.71191-.73029 1.3779-1.42842 1.64889-1.67185.15923-.18733.26741-.41259.31408-.65398.04667-.24139.03024-.49074-.04769-.72393-.21991-.9566-.39008-1.92396-.50982-2.89818-.01283-.12406-.05079-.24421-.11157-.35312-.06077-.10892-.14309-.20431-.24193-.28038-.09884-.07606-.21214-.1312-.33298-.16206-.12085-.03085-.24671-.03678-.36992-.01741H2.05318c-.16153.01459-.31273.08569-.427.20079-.11426.1151-.18425.26683-.19765.42846-.25261 3.53202 1.71779 7.31206 2.11738 8.03773v.0276l.05511.1056c1.43043 2.4809 3.49003 4.5405 5.97092 5.9709l.20209.1149c.91857.4868 4.57007 2.324 7.98267 2.0714.1632-.0113.3171-.0804.4341-.1948.117-.1145.1894-.2669.2043-.4298v-3.9087c.0194-.1232.0135-.2491-.0174-.3699-.0309-.1208-.086-.2341-.1621-.333-.076-.0988-.1714-.1811-.2803-.2419-.109-.0608-.2291-.0988-.3532-.1116Z" fill="#fff"/></svg>