<svg width="20" height="21" fill="none" xmlns="http://www.w3.org/2000/svg"><path d="M17.0854 2.92468c-.9214-.93072-2.0189-1.66867-3.2285-2.1708-1.2096-.502127-2.507-.75838263-3.8167-.75382013C4.55276.00005987.0804022 4.47242.0804022 9.95986c0 1.75884.4623118 3.46734 1.3266378 4.97484L0 20.1006l5.27638-1.387c1.45729.794 3.09548 1.2161 4.76382 1.2161 5.4874 0 9.9598-4.4724 9.9598-9.95979 0-2.66332-1.0352-5.16583-2.9146-7.04523ZM10.0402 18.2413c-1.48744 0-2.94472-.402-4.22111-1.1558l-.3015-.1809-3.13568.8241.83417-3.0553-.201-.3115c-.82639-1.3197-1.26519-2.845-1.26634-4.40204 0-4.56282 3.7186-8.28141 8.28136-8.28141 2.2111 0 4.2915.86432 5.8493 2.43216.7713.76781 1.3826 1.68107 1.7984 2.68686.4158 1.00579.6278 2.08411.6237 3.17244.0201 4.56279-3.6985 8.27139-8.2613 8.27139Zm4.5427-6.191c-.2512-.1206-1.4774-.7236-1.6985-.8141-.2311-.0804-.3919-.1206-.5628.1206-.1708.2513-.6432.8141-.7839.9749-.1407.1709-.2915.191-.5427.0603-.2513-.1206-1.0553-.3919-2.00003-1.2362-.74371-.6633-1.23618-1.47735-1.38693-1.7286-.1407-.25126-.0201-.38191.11055-.51257.11055-.11055.25126-.29146.37186-.43216.1206-.1407.17086-.25126.25126-.41206.0804-.17085.0402-.31156-.0201-.43216-.06031-.1206-.56282-1.34673-.76382-1.84925-.20101-.48241-.41206-.42211-.56282-.43216h-.48241c-.17085 0-.43216.06031-.66331.31156-.22111.25126-.86433.85427-.86433 2.0804S5.8794 10.1609 6 10.3217c.1206.1708 1.75879 2.6834 4.2513 3.7588.5929.2613 1.0552.412 1.417.5226.593.1909 1.1357.1608 1.5679.1005.4824-.0704 1.4774-.603 1.6784-1.186.211-.5829.211-1.0753.1407-1.1859-.0704-.1105-.2211-.1608-.4724-.2814Z" fill="#fff"/></svg>