<svg width="10" height="10" fill="none" xmlns="http://www.w3.org/2000/svg"><g clip-path="url(#a)"><path fill="#fff" d="M0 0h10v10H0z"/><path d="M.7 8.4h1.6v1.4a.2.2 0 0 0 .2.2h1.2a.2.2 0 0 0 .2-.2V8.4H7.7V7.1L7.5 7H3.9v-.8h2.4c1 0 1.7-.3 2.3-.9a3 3 0 0 0 1-2.2 3 3 0 0 0-1-2.2C8 .3 7.3 0 6.3 0h-4v4.7H.5v1.4l.2.1h1.6V7H.7l-.2.1V8.3l.2.1Zm3.2-6.9h2.3c.5 0 .9.2 1.2.5.3.2.5.6.5 1.1 0 .5-.2.9-.5 1.2-.3.2-.7.4-1.2.4H3.9V1.5Z" fill="#949981"/></g><defs><clipPath id="a"><path fill="#fff" d="M0 0h10v10H0z"/></clipPath></defs></svg>