<svg width="46" height="46" viewBox="0 0 46 46" fill="none" xmlns="http://www.w3.org/2000/svg">
<circle cx="23" cy="23" r="23" fill="#28553F"/>
<circle cx="23" cy="23" r="23" stroke="#9C9C9C"/>
<path d="M27.9272 18.9465C27.9272 16.2725 25.7487 14.105 23.0613 14.105C20.3741 14.105 18.1953 16.2725 18.1953 18.9465C18.1953 21.6204 20.3741 23.788 23.0613 23.788C25.7475 23.7851 27.9244 21.6192 27.9272 18.9465ZM23.0613 22.8197C20.9115 22.8197 19.1685 21.0857 19.1685 18.9465C19.1685 16.8073 20.9115 15.0733 23.0613 15.0733C25.2113 15.0733 26.954 16.8073 26.954 18.9465C26.9517 21.0845 25.2103 22.8173 23.0613 22.8197Z" fill="#28553F"/>
<path d="M35.5298 29.4345L34.1994 29.2688L35.0227 28.2159C35.2587 27.9125 35.2316 27.4823 34.9595 27.2107L33.7342 25.9915C33.4615 25.7203 33.0285 25.6932 32.7237 25.9281L31.6652 26.7473L31.5193 25.595L31.7041 25.4106C32.0513 25.0653 32.0857 24.5166 31.784 24.131L30.1783 22.0737C30.2291 21.9589 30.2757 21.8475 30.3182 21.7397L32.9105 21.4182C33.3985 21.3593 33.7658 20.9473 33.7663 20.4581V17.4368C33.7651 16.9487 33.399 16.5378 32.9119 16.4782L30.3173 16.1562C30.2752 16.0484 30.2284 15.9371 30.1771 15.8222L31.783 13.7694C32.0862 13.3813 32.0518 12.8293 31.7027 12.4815L29.5567 10.3463C29.2096 10.0009 28.6581 9.96683 28.2706 10.2668L26.2029 11.8671C26.0879 11.8165 25.976 11.7699 25.8672 11.7276L25.5426 9.14862C25.484 8.66304 25.0708 8.29732 24.5792 8.2959H21.443C20.9522 8.29613 20.5392 8.66209 20.4819 9.14697L20.1624 11.729C20.0566 11.7706 19.9485 11.8162 19.8371 11.8657L17.808 10.2765C17.4166 9.9699 16.8561 10.0047 16.5059 10.3574L14.3891 12.4879C14.0479 12.8326 14.0139 13.3749 14.3097 13.7593L15.9024 15.8208C15.8539 15.9359 15.8052 16.0472 15.7634 16.1557L13.207 16.4782C12.7214 16.5392 12.3567 16.9496 12.3555 17.4368V20.4581C12.3564 20.9444 12.72 21.3546 13.2047 21.4168L15.7653 21.7383C15.8076 21.8466 15.8539 21.9579 15.9045 22.0733L14.3116 24.1352C14.0161 24.5196 14.0498 25.0622 14.391 25.4071L16.5073 27.5376C16.8576 27.8906 17.4183 27.9253 17.8101 27.6185L19.8392 26.0293C19.9507 26.0778 20.0585 26.1263 20.1643 26.166L20.4834 28.7459C20.5402 29.231 20.9522 29.5974 21.443 29.5991H23.8492C23.6623 29.7386 23.5508 29.9565 23.5475 30.1894V31.9138C23.548 32.2972 23.8348 32.6206 24.2173 32.6686L25.5476 32.8343L24.7243 33.8873C24.4884 34.1906 24.5155 34.6209 24.7875 34.8925L26.0129 36.1116C26.2859 36.3823 26.7183 36.4095 27.0234 36.175L28.0819 35.3558L28.2482 36.6795C28.2965 37.0599 28.6215 37.3452 29.0069 37.3457H30.7402C31.1256 37.3452 31.4506 37.0599 31.4989 36.6795L31.6652 35.3558L32.7237 36.175C33.0283 36.4098 33.461 36.3828 33.7337 36.1121L34.9591 34.893C35.2316 34.6213 35.2589 34.1908 35.0227 33.8873L34.1994 32.8343L35.5298 32.6686C35.9123 32.6206 36.1991 32.2972 36.1993 31.9138V30.1894C36.1989 29.8059 35.9121 29.4828 35.5298 29.4345ZM21.094 25.7549C21.0712 25.5702 20.9438 25.4149 20.7666 25.3553C20.5002 25.2636 20.2403 25.1551 19.988 25.03C19.8202 24.9485 19.6204 24.9697 19.4738 25.0846L17.2007 26.8577L15.0836 24.7274L16.8547 22.4336C16.9664 22.2891 16.9871 22.0943 16.9084 21.93C16.7839 21.6752 16.6758 21.413 16.5848 21.1447C16.5259 20.9674 16.37 20.8395 16.1837 20.8158L13.3287 20.4581V17.4378L16.1861 17.0796C16.3724 17.0562 16.5285 16.9281 16.5872 16.7508C16.6784 16.4825 16.7865 16.2203 16.9108 15.9654C16.9897 15.8011 16.9688 15.6063 16.8573 15.4619L15.0805 13.1685L17.2061 11.0382L19.4707 12.8118C19.6175 12.9267 19.8174 12.9479 19.9851 12.8664C20.2375 12.7413 20.4974 12.6328 20.7637 12.5411C20.941 12.4815 21.0683 12.3264 21.0912 12.1415L21.443 9.26422H24.5782L24.9384 12.1401C24.9612 12.3255 25.0893 12.481 25.2673 12.5401C25.5372 12.6316 25.8007 12.7404 26.0566 12.8654C26.2231 12.9451 26.4206 12.9243 26.5665 12.8113L28.8686 11.0295L31.0141 13.1718L29.2269 15.4614C29.1133 15.6066 29.0922 15.8033 29.1723 15.969C29.2982 16.2234 29.4072 16.4858 29.4994 16.7543C29.5586 16.9314 29.7152 17.0586 29.9012 17.0815L32.7931 17.4368V20.4572L29.9026 20.8153C29.7166 20.8383 29.5603 20.9657 29.5009 21.1428C29.4087 21.4111 29.2996 21.6735 29.1737 21.9279C29.0936 22.0936 29.1148 22.2903 29.2283 22.4355L31.0184 24.726L30.9486 24.7957C30.8811 24.7733 30.811 24.7603 30.7402 24.7574H29.0069C28.6215 24.7579 28.2965 25.0433 28.2482 25.4236L28.1377 26.301L26.5669 25.0823C26.4211 24.9693 26.2231 24.9482 26.0566 25.0281C25.8007 25.1532 25.5372 25.2619 25.2673 25.3534C25.0895 25.4125 24.9615 25.5679 24.9384 25.753L24.7471 27.2698C24.6305 27.409 24.5685 27.5858 24.573 27.7669C24.549 27.8125 24.5326 27.8615 24.5243 27.9123L24.4376 28.6308H21.4499L21.094 25.7549ZM25.3345 28.9986L25.5476 29.2714L25.114 29.3251C25.2095 29.2317 25.2846 29.1199 25.3345 28.9962V28.9986ZM35.2261 31.7294L33.7568 31.9119C33.5722 31.935 33.4168 32.0606 33.3567 32.2357C33.3065 32.3814 33.2469 32.5234 33.1785 32.6615C33.0967 32.8275 33.1172 33.0256 33.2312 33.1717L34.141 34.3336L33.1756 35.2977L32.0078 34.3923C31.861 34.2788 31.6619 34.2584 31.4948 34.34C31.3563 34.4081 31.2135 34.4672 31.0671 34.5173C30.8911 34.5771 30.7647 34.7315 30.7416 34.9152L30.5549 36.3774H29.1922L29.0088 34.9152C28.9857 34.7315 28.8593 34.5771 28.6833 34.5173C28.5371 34.4672 28.3941 34.4081 28.2556 34.34C28.0886 34.2584 27.8894 34.2788 27.7426 34.3923L26.5748 35.2977L25.6061 34.3372L26.5159 33.1752C26.6299 33.0289 26.6503 32.831 26.5684 32.6648C26.5002 32.5268 26.4405 32.3847 26.3904 32.2393C26.3303 32.0641 26.1749 31.9383 25.9903 31.9154L24.5207 31.7294V30.3738L25.9903 30.1913C26.1749 30.1681 26.3303 30.0426 26.3904 29.8674C26.4405 29.7218 26.5002 29.5797 26.5684 29.4416C26.6503 29.2757 26.6299 29.0776 26.5159 28.9315L25.6061 27.7695L26.5715 26.8088L27.7393 27.7142C27.8861 27.8277 28.0852 27.848 28.2523 27.7664C28.3908 27.6984 28.5336 27.6393 28.6799 27.5894C28.856 27.5296 28.9822 27.375 29.0055 27.1913L29.1922 25.7258H30.5549L30.7383 27.188C30.7613 27.3716 30.8877 27.526 31.0638 27.5858C31.2099 27.636 31.353 27.6951 31.4915 27.7631C31.6585 27.8447 31.8576 27.8244 32.0045 27.7109L33.1723 26.8055L34.1377 27.766L33.2277 28.9279C33.1136 29.0743 33.0932 29.2721 33.1751 29.4383C33.2436 29.5764 33.303 29.7185 33.3533 29.8639C33.4135 30.039 33.5686 30.1648 33.7532 30.1877L35.2261 30.3738V31.7294Z" fill="#28553F"/>
<path d="M12.4364 10.9221C11.7819 11.8956 11.5794 13.1022 11.8807 14.2345L12.818 13.9721C12.5902 13.1187 12.7422 12.209 13.2355 11.4748C13.732 10.7916 14.4881 10.3405 15.3277 10.2268L15.2111 9.26514C14.0946 9.40863 13.0889 10.0091 12.4364 10.9221Z" fill="#28553F"/>
<path d="M10.8776 13.0072C10.6498 12.1537 10.8018 11.2441 11.2951 10.5098C11.7916 9.82661 12.5477 9.37556 13.3873 9.26185L13.2707 8.30017C12.1545 8.4439 11.1492 9.04436 10.497 9.95711C9.84241 10.9306 9.63997 12.1372 9.94125 13.2696L10.8776 13.0072Z" fill="#28553F"/>
<path d="M18.84 31.2C17.88 31.1733 17.0333 30.94 16.3 30.5C15.5667 30.06 14.9533 29.4867 14.46 28.78C13.9667 28.06 13.5933 27.2867 13.34 26.46C13.0867 25.62 12.96 24.8 12.96 24C12.96 23.1467 13.0933 22.2933 13.36 21.44C13.64 20.5867 14.0333 19.8133 14.54 19.12C15.06 18.4133 15.68 17.8533 16.4 17.44C17.12 17.0133 17.9333 16.8 18.84 16.8C19.8133 16.8 20.66 17.0267 21.38 17.48C22.1133 17.9333 22.7267 18.52 23.22 19.24C23.7133 19.96 24.08 20.74 24.32 21.58C24.5733 22.42 24.7 23.2267 24.7 24C24.7 24.8667 24.56 25.7267 24.28 26.58C24.0133 27.42 23.6267 28.1867 23.12 28.88C22.6133 29.5733 21.9933 30.1333 21.26 30.56C20.54 30.9733 19.7333 31.1867 18.84 31.2ZM14.38 24C14.4067 24.6933 14.5133 25.3933 14.7 26.1C14.9 26.7933 15.1867 27.4333 15.56 28.02C15.9333 28.5933 16.3867 29.06 16.92 29.42C17.4667 29.7667 18.1067 29.94 18.84 29.94C19.5867 29.94 20.24 29.7533 20.8 29.38C21.36 29.0067 21.82 28.52 22.18 27.92C22.5533 27.3067 22.8333 26.66 23.02 25.98C23.2067 25.2867 23.3 24.6267 23.3 24C23.3 23.3067 23.2 22.6133 23 21.92C22.8 21.2133 22.5067 20.5733 22.12 20C21.7333 19.4133 21.2667 18.9467 20.72 18.6C20.1733 18.24 19.5467 18.06 18.84 18.06C18.08 18.06 17.42 18.2533 16.86 18.64C16.3 19.0133 15.8333 19.5 15.46 20.1C15.1 20.7 14.8267 21.3467 14.64 22.04C14.4667 22.72 14.38 23.3733 14.38 24ZM33.5333 29.76V31H26.9133V29.76H29.6133V18.14C29.4933 18.3 29.3133 18.48 29.0733 18.68C28.8466 18.8667 28.5799 19.0533 28.2733 19.24C27.9666 19.4133 27.6533 19.56 27.3333 19.68C27.0133 19.8 26.7199 19.86 26.4533 19.86V18.58C26.8133 18.58 27.1733 18.4867 27.5333 18.3C27.8933 18.1 28.2266 17.88 28.5333 17.64C28.8533 17.3867 29.1066 17.16 29.2933 16.96C29.4933 16.7467 29.5999 16.6333 29.6133 16.62H30.9933V29.76H33.5333Z" fill="white"/>
</svg>
