<svg width="46" height="46" viewBox="0 0 46 46" fill="none" xmlns="http://www.w3.org/2000/svg">
<circle cx="23" cy="23" r="23" fill="#28553F"/>
<circle cx="23" cy="23" r="23" stroke="#9C9C9C"/>
<path d="M16.84 31.2C15.88 31.1733 15.0333 30.94 14.3 30.5C13.5667 30.06 12.9533 29.4867 12.46 28.78C11.9667 28.06 11.5933 27.2867 11.34 26.46C11.0867 25.62 10.96 24.8 10.96 24C10.96 23.1467 11.0933 22.2933 11.36 21.44C11.64 20.5867 12.0333 19.8133 12.54 19.12C13.06 18.4133 13.68 17.8533 14.4 17.44C15.12 17.0133 15.9333 16.8 16.84 16.8C17.8133 16.8 18.66 17.0267 19.38 17.48C20.1133 17.9333 20.7267 18.52 21.22 19.24C21.7133 19.96 22.08 20.74 22.32 21.58C22.5733 22.42 22.7 23.2267 22.7 24C22.7 24.8667 22.56 25.7267 22.28 26.58C22.0133 27.42 21.6267 28.1867 21.12 28.88C20.6133 29.5733 19.9933 30.1333 19.26 30.56C18.54 30.9733 17.7333 31.1867 16.84 31.2ZM12.38 24C12.4067 24.6933 12.5133 25.3933 12.7 26.1C12.9 26.7933 13.1867 27.4333 13.56 28.02C13.9333 28.5933 14.3867 29.06 14.92 29.42C15.4667 29.7667 16.1067 29.94 16.84 29.94C17.5867 29.94 18.24 29.7533 18.8 29.38C19.36 29.0067 19.82 28.52 20.18 27.92C20.5533 27.3067 20.8333 26.66 21.02 25.98C21.2067 25.2867 21.3 24.6267 21.3 24C21.3 23.3067 21.2 22.6133 21 21.92C20.8 21.2133 20.5067 20.5733 20.12 20C19.7333 19.4133 19.2667 18.9467 18.72 18.6C18.1733 18.24 17.5467 18.06 16.84 18.06C16.08 18.06 15.42 18.2533 14.86 18.64C14.3 19.0133 13.8333 19.5 13.46 20.1C13.1 20.7 12.8267 21.3467 12.64 22.04C12.4667 22.72 12.38 23.3733 12.38 24ZM24.6319 31C24.6185 30.16 24.6852 29.42 24.8319 28.78C24.9785 28.14 25.1985 27.5733 25.4919 27.08C25.7985 26.5867 26.1652 26.16 26.5919 25.8C27.0185 25.4267 27.4985 25.1 28.0319 24.82C28.5385 24.54 29.0652 24.2867 29.6119 24.06C30.1585 23.82 30.6652 23.56 31.1319 23.28C31.5985 23 31.9719 22.66 32.2519 22.26C32.5452 21.8467 32.6919 21.3333 32.6919 20.72C32.6919 20.2133 32.5785 19.7467 32.3519 19.32C32.1385 18.8933 31.8052 18.5533 31.3519 18.3C30.8985 18.0333 30.3252 17.9 29.6319 17.9C28.9519 17.9 28.3452 18.0133 27.8119 18.24C27.2919 18.4667 26.8519 18.74 26.4919 19.06C26.1452 19.38 25.8652 19.6733 25.6519 19.94L24.7519 19.06C24.8319 18.9667 24.9919 18.7867 25.2319 18.52C25.4852 18.2533 25.8185 17.9733 26.2319 17.68C26.6585 17.3867 27.1585 17.14 27.7319 16.94C28.3185 16.7267 28.9985 16.62 29.7719 16.62C30.7585 16.62 31.5785 16.8133 32.2319 17.2C32.8852 17.5733 33.3719 18.0667 33.6919 18.68C34.0252 19.2933 34.1919 19.9667 34.1919 20.7C34.1919 21.4067 34.0519 22.0067 33.7719 22.5C33.5052 22.98 33.1519 23.3867 32.7119 23.72C32.2852 24.04 31.8185 24.32 31.3119 24.56C30.8185 24.8 30.3519 25.0267 29.9119 25.24C29.0585 25.6267 28.3785 26.0067 27.8719 26.38C27.3652 26.7533 26.9852 27.1267 26.7319 27.5C26.4919 27.8733 26.3319 28.2467 26.2519 28.62C26.1719 28.9933 26.1252 29.3733 26.1119 29.76H34.2119V31H24.6319Z" fill="white"/>
</svg>
