<svg width="47" height="46" viewBox="0 0 47 46" fill="none" xmlns="http://www.w3.org/2000/svg">
<path d="M24.296 6.43463C23.9925 6.15473 23.594 5.99948 23.1803 6H15.124C14.5999 6.00012 14.1072 6.24899 13.7975 6.67008C13.4877 7.09117 13.398 7.63406 13.5559 8.1318L15.5729 14.4881C15.7869 15.1708 16.4223 15.635 17.1403 15.6333H19.4986C19.6157 15.6341 19.7299 15.6694 19.8269 15.7348L24.9424 19.3048C25.219 19.4976 25.5486 19.6007 25.8863 19.6H29.2328C30.1409 19.5991 30.8767 18.8661 30.8777 17.9618V13.2018C30.877 12.7445 30.6851 12.3081 30.348 11.9976L24.296 6.43463ZM29.7398 17.9618C29.7398 18.2406 29.5128 18.4667 29.2328 18.4667H25.8863C25.7821 18.4667 25.6804 18.4349 25.5949 18.3754L20.4715 14.8009C20.1847 14.606 19.8458 14.5012 19.4986 14.5H17.1403C16.919 14.5005 16.7232 14.3574 16.6573 14.147L14.6404 7.7901C14.5918 7.63667 14.6195 7.46937 14.715 7.33964C14.8106 7.20991 14.9624 7.13329 15.124 7.13333H23.1803C23.3069 7.13369 23.4288 7.18142 23.5217 7.26707L29.5742 12.83C29.6783 12.9256 29.7375 13.0602 29.7375 13.2012L29.7398 17.9618Z" fill="#9C9C9C"/>
<path d="M38.9041 6H29.7121C29.0351 6.00008 28.4272 6.41332 28.1805 7.04126C27.9338 7.66921 28.0986 8.38356 28.5958 8.84127L30.9075 10.968C31.2127 11.2472 31.6121 11.4021 32.0266 11.402C32.1826 11.4021 32.3378 11.38 32.4874 11.3363L39.3683 9.3201C40.0664 9.11206 40.5457 8.47384 40.5489 7.74817V7.63823C40.548 6.73385 39.8121 6.00094 38.9041 6ZM39.411 7.74817C39.4094 7.97169 39.2617 8.1681 39.0469 8.23267L32.1666 10.25C31.9955 10.2991 31.811 10.2562 31.6795 10.1367L29.3684 8.00883C29.2154 7.8678 29.1647 7.64781 29.2406 7.4544C29.3165 7.26098 29.5036 7.13359 29.7121 7.13333H38.9041C39.184 7.13333 39.411 7.35938 39.411 7.63823V7.74817Z" fill="#9C9C9C"/>
<path d="M39.8889 11.0337C39.475 10.7223 38.9368 10.6259 38.4398 10.7742L33.1947 12.3132C32.4968 12.5211 32.0177 13.1592 32.0146 13.8846V17.9646C32.0172 18.8679 32.7526 19.5991 33.6595 19.6H34.7695C34.815 19.6 34.8611 19.6 34.9049 19.5943L39.0395 19.2543C39.8903 19.1798 40.5443 18.4724 40.5489 17.6218V12.3467C40.5515 11.8293 40.3064 11.3417 39.8889 11.0337ZM39.411 17.6218C39.4086 17.8834 39.2078 18.1008 38.9462 18.125L34.7695 18.465H33.6595C33.3802 18.465 33.1535 18.24 33.1526 17.9618V13.8818C33.1544 13.6586 33.3017 13.4625 33.5161 13.3978L38.7607 11.8582C38.8077 11.8447 38.8563 11.8379 38.9052 11.8378C39.0402 11.8379 39.1696 11.8918 39.2645 11.9873C39.3595 12.0829 39.4122 12.2122 39.411 12.3467V17.6218Z" fill="#9C9C9C"/>
<path d="M38.7669 20.4126L36.4291 20.6059C35.7482 20.665 35.174 21.1351 34.984 21.7891L33.4893 27.0098C33.3266 27.5815 33.4865 28.1962 33.9075 28.6174L37.74 32.4384C38.0441 32.7466 38.4594 32.9209 38.8932 32.9224C39.1128 32.9219 39.3302 32.8782 39.5327 32.7937C40.1521 32.5459 40.5554 31.9449 40.5483 31.2802V22.0435C40.548 21.5855 40.3553 21.1486 40.0168 20.8385C39.6784 20.5285 39.2252 20.3736 38.7669 20.4115V20.4126ZM39.4104 31.2802C39.4104 31.4844 39.2869 31.6685 39.0975 31.7466C38.9081 31.8247 38.69 31.7815 38.545 31.6372L34.7126 27.8167C34.5827 27.6868 34.5335 27.4971 34.584 27.3209L36.0786 22.1002C36.1376 21.899 36.3141 21.7543 36.5236 21.7352L38.8614 21.542H38.9046C39.1839 21.5432 39.4098 21.7687 39.4104 22.0469V31.2802Z" fill="#9C9C9C"/>
<path d="M8.05695 15.6333H12.4948C13.0189 15.6332 13.5115 15.3843 13.8213 14.9633C14.131 14.5422 14.2207 13.9993 14.0628 13.5015L12.0447 7.14524C11.8307 6.46258 11.1953 5.99831 10.4773 6H8.05695C7.14892 6.00094 6.41305 6.73386 6.41211 7.63824V13.9951C6.41305 14.8995 7.14892 15.6324 8.05695 15.6333ZM7.55001 7.63824C7.55001 7.35939 7.77698 7.13334 8.05695 7.13334H10.4773C10.6986 7.13279 10.8944 7.27593 10.9603 7.48637L12.9772 13.8432C13.0258 13.9967 12.9981 14.164 12.9026 14.2937C12.807 14.4234 12.6552 14.5001 12.4936 14.5H8.05581C7.77628 14.4994 7.55001 14.2735 7.55001 13.9951V7.63824Z" fill="#9C9C9C"/>
<path d="M7.32243 30.8201C7.87916 31.0998 8.54715 31.0398 9.04465 30.6654L11.1799 29.0725C11.698 28.6837 11.9393 28.0287 11.7967 27.3985L9.66083 18.0417C9.47511 17.2285 8.7056 16.684 7.87346 16.7771C7.04131 16.8701 6.41217 17.5709 6.41211 18.405V29.3569C6.41099 29.9775 6.76396 30.5448 7.32243 30.8201ZM7.55002 18.405C7.55034 18.1484 7.74376 17.9329 7.99968 17.9039C8.2556 17.875 8.49266 18.0417 8.5508 18.2916L10.6866 27.6496C10.731 27.8438 10.6568 28.0458 10.4972 28.1658L8.36134 29.761C8.20771 29.8758 8.00208 29.8944 7.83024 29.8088C7.65841 29.7232 7.54991 29.5483 7.55002 29.3569V18.405Z" fill="#9C9C9C"/>
<path d="M13.5741 39.9998C14.1242 40.0006 14.6381 39.7265 14.9424 39.27L17.8281 34.9565C18.121 34.518 18.1845 33.9661 17.9988 33.473L17.0987 31.0845C16.9095 30.5811 16.4842 30.2024 15.9608 30.0713L13.5576 29.4706C13.0767 29.349 12.5664 29.4516 12.1705 29.7494L7.06925 33.5585C6.65669 33.869 6.41357 34.3537 6.41211 34.8687V38.3616C6.41305 39.266 7.14892 39.9989 8.05695 39.9998H13.5741ZM7.55001 38.3616V34.8687C7.55058 34.71 7.62524 34.5607 7.75199 34.4646L12.8521 30.6555C12.9395 30.59 13.0459 30.5546 13.1553 30.5546C13.1969 30.5547 13.2384 30.5599 13.2788 30.5699L15.6826 31.1706C15.844 31.2109 15.9753 31.3276 16.0336 31.4828L16.9337 33.8719C16.9899 34.0228 16.9702 34.1912 16.8808 34.3252L13.9957 38.6398C13.9023 38.7811 13.7439 38.8662 13.5741 38.8665H8.05524C7.77594 38.8656 7.55001 38.6398 7.55001 38.3616Z" fill="#9C9C9C"/>
<path d="M24.1111 34.8999H20.1125C19.5637 34.9003 19.0513 35.1737 18.747 35.6286L17.5249 37.4527C17.1889 37.9552 17.1575 38.601 17.4432 39.1335C17.7289 39.6659 18.2854 39.9988 18.8915 39.9999H24.1111C25.0191 39.999 25.755 39.2661 25.7559 38.3617V36.5381C25.755 35.6338 25.0191 34.9008 24.1111 34.8999ZM24.618 38.3617C24.618 38.6405 24.3911 38.8666 24.1111 38.8666H18.8915C18.7046 38.8667 18.5327 38.7643 18.4444 38.6001C18.3561 38.436 18.3657 38.2367 18.4694 38.0817L19.6915 36.2599C19.7846 36.1187 19.9428 36.0335 20.1125 36.0332H24.1111C24.3911 36.0332 24.618 36.2593 24.618 36.5381V38.3617Z" fill="#9C9C9C"/>
<path d="M33.747 30.0595C33.1035 29.4227 32.0646 29.4227 31.4211 30.0595L27.3764 34.0885C27.0668 34.3951 26.8933 34.8124 26.8945 35.2473V38.364C26.8967 39.2675 27.6322 39.999 28.5394 40H38.9045C39.8126 39.999 40.5484 39.2661 40.5494 38.3617V37.5066C40.5482 37.0721 40.3748 36.6556 40.0669 36.3478L33.747 30.0595ZM39.4115 38.3617C39.4115 38.6406 39.1845 38.8666 38.9045 38.8666H28.5394C28.2594 38.8666 28.0324 38.6406 28.0324 38.3617V35.2451C28.0323 35.1111 28.0857 34.9826 28.1809 34.8881L32.2256 30.8596C32.4236 30.6625 32.7445 30.6625 32.9425 30.8596L39.263 37.1496C39.3576 37.2446 39.4109 37.3728 39.4115 37.5066V38.3617Z" fill="#9C9C9C"/>
<path d="M23.5861 20.3849C23.5233 19.9327 23.2746 19.5268 22.8993 19.2646L19.7434 17.0631C19.4669 16.8699 19.1372 16.7664 18.7995 16.7667H12.6008C12.1006 16.7668 11.6276 16.9935 11.3155 17.3828C11.0034 17.7722 10.8861 18.2818 10.9969 18.7676L12.9239 27.22C13.0596 27.8239 13.5272 28.2991 14.1307 28.4463L16.0042 28.9115C16.6194 29.0629 17.2673 28.8499 17.6713 28.3636L23.2254 21.648C23.5166 21.2952 23.6473 20.8376 23.5861 20.3849ZM22.3475 20.9272L16.7928 27.6433C16.6692 27.7934 16.47 27.8595 16.2807 27.8133L14.4066 27.3487C14.2201 27.3019 14.0763 27.1539 14.0357 26.9667L12.1069 18.5166C12.0726 18.3669 12.1086 18.2099 12.2048 18.0899C12.3009 17.9699 12.4466 17.9 12.6008 17.9001H18.8023C18.9066 17.8999 19.0084 17.932 19.0936 17.9919L22.2496 20.1928C22.366 20.2735 22.4432 20.3991 22.4623 20.5391C22.4815 20.6791 22.4408 20.8207 22.3503 20.9295L22.3475 20.9272Z" fill="#9C9C9C"/>
<path d="M31.7778 28.0999C31.975 27.9031 32.1187 27.6596 32.1954 27.3922L33.508 22.8197C33.6491 22.3257 33.5493 21.7943 33.2386 21.3844C32.9278 20.9744 32.442 20.7334 31.9263 20.7333H26.2311C25.7391 20.7321 25.2727 20.9512 24.9606 21.33L18.4745 29.1766C18.102 29.6292 17.9993 30.245 18.2049 30.7933L18.9252 32.7041C19.1674 33.3426 19.7806 33.7655 20.4659 33.7666H25.4084C25.8448 33.7677 26.2636 33.5949 26.5713 33.2866L31.7778 28.0999ZM25.4084 32.6333H20.4659C20.2551 32.6318 20.0668 32.5018 19.9914 32.3057L19.2711 30.3961C19.2075 30.227 19.2391 30.037 19.3541 29.8974L25.8402 22.0502C25.936 21.9335 26.0797 21.866 26.2311 21.8666H31.9263C32.0854 21.8665 32.2353 21.9409 32.3311 22.0674C32.4268 22.194 32.4573 22.358 32.4133 22.5103L31.1013 27.0833C31.0773 27.1653 31.0331 27.2399 30.9727 27.3004L25.7668 32.4854C25.6719 32.5803 25.5429 32.6336 25.4084 32.6333Z" fill="#9C9C9C"/>
<path d="M46.5742 23C46.5742 35.7025 36.2352 46 23.4814 46C10.7276 46 0.388672 35.7025 0.388672 23C0.388672 10.2975 10.7276 0 23.4814 0C36.2352 0 46.5742 10.2975 46.5742 23Z" fill="#28553F"/>
<path d="M46.5742 23C46.5742 35.7025 36.2352 46 23.4814 46C10.7276 46 0.388672 35.7025 0.388672 23C0.388672 10.2975 10.7276 0 23.4814 0C36.2352 0 46.5742 10.2975 46.5742 23Z" stroke="#9C9C9C"/>
<path d="M28.4294 18.9465C28.4294 16.2725 26.2421 14.105 23.5438 14.105C20.8457 14.105 18.6582 16.2725 18.6582 18.9465C18.6582 21.6204 20.8457 23.788 23.5438 23.788C26.2409 23.7851 28.4265 21.6192 28.4294 18.9465ZM23.5438 22.8197C21.3854 22.8197 19.6353 21.0857 19.6353 18.9465C19.6353 16.8073 21.3854 15.0733 23.5438 15.0733C25.7025 15.0733 27.4523 16.8073 27.4523 18.9465C27.4499 21.0845 25.7015 22.8173 23.5438 22.8197Z" fill="#28553F"/>
<path d="M36.0627 29.4345L34.727 29.2688L35.5536 28.2159C35.7905 27.9125 35.7633 27.4823 35.4901 27.2107L34.2599 25.9915C33.986 25.7203 33.5514 25.6932 33.2453 25.9281L32.1825 26.7473L32.036 25.595L32.2216 25.4106C32.5702 25.0653 32.6047 24.5166 32.3018 24.131L30.6896 22.0737C30.7406 21.9589 30.7874 21.8475 30.8301 21.7397L33.4328 21.4182C33.9228 21.3593 34.2916 20.9473 34.2921 20.4581V17.4368C34.2909 16.9487 33.9233 16.5378 33.4342 16.4782L30.8291 16.1562C30.7869 16.0484 30.7399 15.9371 30.6884 15.8222L32.3008 13.7694C32.6052 13.3813 32.5706 12.8293 32.2202 12.4815L30.0655 10.3463C29.717 10.0009 29.1633 9.96683 28.7742 10.2668L26.6982 11.8671C26.5828 11.8165 26.4704 11.7699 26.3611 11.7276L26.0353 9.14862C25.9763 8.66304 25.5615 8.29732 25.0679 8.2959H21.9191C21.4263 8.29613 21.0117 8.66209 20.9542 9.14697L20.6333 11.729C20.5271 11.7706 20.4186 11.8162 20.3067 11.8657L18.2694 10.2765C17.8765 9.9699 17.3137 10.0047 16.9621 10.3574L14.8368 12.4879C14.4942 12.8326 14.4601 13.3749 14.7571 13.7593L16.3562 15.8208C16.3075 15.9359 16.2586 16.0472 16.2166 16.1557L13.6499 16.4782C13.1623 16.5392 12.7961 16.9496 12.7949 17.4368V20.4581C12.7959 20.9444 13.1609 21.3546 13.6475 21.4168L16.2185 21.7383C16.261 21.8466 16.3075 21.9579 16.3583 22.0733L14.759 24.1352C14.4622 24.5196 14.4961 25.0622 14.8387 25.4071L16.9635 27.5376C17.3152 27.8906 17.8782 27.9253 18.2716 27.6185L20.3089 26.0293C20.4207 26.0778 20.5291 26.1263 20.6352 26.166L20.9556 28.7459C21.0126 29.231 21.4263 29.5974 21.9191 29.5991H24.335C24.1473 29.7386 24.0354 29.9565 24.0321 30.1894V31.9138C24.0326 32.2972 24.3205 32.6206 24.7046 32.6686L26.0403 32.8343L25.2137 33.8873C24.9768 34.1906 25.004 34.6209 25.2771 34.8925L26.5074 36.1116C26.7815 36.3823 27.2157 36.4095 27.522 36.175L28.5848 35.3558L28.7518 36.6795C28.8002 37.0599 29.1265 37.3452 29.5135 37.3457H31.2538C31.6407 37.3452 31.9671 37.0599 32.0155 36.6795L32.1825 35.3558L33.2453 36.175C33.5511 36.4098 33.9855 36.3828 34.2594 36.1121L35.4897 34.893C35.7633 34.6213 35.7907 34.1908 35.5536 33.8873L34.727 32.8343L36.0627 32.6686C36.4468 32.6206 36.7347 32.2972 36.7349 31.9138V30.1894C36.7345 29.8059 36.4465 29.4828 36.0627 29.4345ZM21.5687 25.7549C21.5458 25.5702 21.4179 25.4149 21.24 25.3553C20.9725 25.2636 20.7116 25.1551 20.4582 25.03C20.2898 24.9485 20.0891 24.9697 19.942 25.0846L17.6596 26.8577L15.5341 24.7274L17.3123 22.4336C17.4244 22.2891 17.4452 22.0943 17.3662 21.93C17.2412 21.6752 17.1327 21.413 17.0413 21.1447C16.9821 20.9674 16.8256 20.8395 16.6386 20.8158L13.7721 20.4581V17.4378L16.641 17.0796C16.828 17.0562 16.9848 16.9281 17.0437 16.7508C17.1353 16.4825 17.2438 16.2203 17.3686 15.9654C17.4478 15.8011 17.4268 15.6063 17.3149 15.4619L15.531 13.1685L17.6651 11.0382L19.9389 12.8118C20.0863 12.9267 20.2869 12.9479 20.4553 12.8664C20.7087 12.7413 20.9697 12.6328 21.2371 12.5411C21.4151 12.4815 21.5429 12.3264 21.5658 12.1415L21.9191 9.26422H25.067L25.4286 12.1401C25.4515 12.3255 25.5801 12.481 25.7588 12.5401C26.0298 12.6316 26.2943 12.7404 26.5513 12.8654C26.7185 12.9451 26.9167 12.9243 27.0632 12.8113L29.3746 11.0295L31.5288 13.1718L29.7344 15.4614C29.6204 15.6066 29.5991 15.8033 29.6795 15.969C29.806 16.2234 29.9155 16.4858 30.008 16.7543C30.0674 16.9314 30.2246 17.0586 30.4114 17.0815L33.3149 17.4368V20.4572L30.4129 20.8153C30.2261 20.8383 30.0691 20.9657 30.0094 21.1428C29.9169 21.4111 29.8074 21.6735 29.6809 21.9279C29.6006 22.0936 29.6218 22.2903 29.7358 22.4355L31.5331 24.726L31.463 24.7957C31.3952 24.7733 31.3249 24.7603 31.2538 24.7574H29.5135C29.1265 24.7579 28.8002 25.0433 28.7518 25.4236L28.6408 26.301L27.0637 25.0823C26.9172 24.9693 26.7185 24.9482 26.5513 25.0281C26.2943 25.1532 26.0298 25.2619 25.7588 25.3534C25.5803 25.4125 25.4517 25.5679 25.4286 25.753L25.2366 27.2698C25.1194 27.409 25.0572 27.5858 25.0617 27.7669C25.0376 27.8125 25.0211 27.8615 25.0128 27.9123L24.9257 28.6308H21.9261L21.5687 25.7549ZM25.8263 28.9986L26.0403 29.2714L25.6049 29.3251C25.7008 29.2317 25.7762 29.1199 25.8263 28.9962V28.9986ZM35.7578 31.7294L34.2825 31.9119C34.0972 31.935 33.9412 32.0606 33.8808 32.2357C33.8305 32.3814 33.7706 32.5234 33.7019 32.6615C33.6198 32.8275 33.6403 33.0256 33.7548 33.1717L34.6683 34.3336L33.699 35.2977L32.5265 34.3923C32.3791 34.2788 32.1792 34.2584 32.0114 34.34C31.8724 34.4081 31.729 34.4672 31.582 34.5173C31.4053 34.5771 31.2784 34.7315 31.2552 34.9152L31.0677 36.3774H29.6996L29.5154 34.9152C29.4922 34.7315 29.3653 34.5771 29.1886 34.5173C29.0418 34.4672 28.8982 34.4081 28.7592 34.34C28.5914 34.2584 28.3915 34.2788 28.2441 34.3923L27.0716 35.2977L26.099 34.3372L27.0124 33.1752C27.1269 33.0289 27.1474 32.831 27.0651 32.6648C26.9967 32.5268 26.9368 32.3847 26.8865 32.2393C26.8261 32.0641 26.6701 31.9383 26.4847 31.9154L25.0092 31.7294V30.3738L26.4847 30.1913C26.6701 30.1681 26.8261 30.0426 26.8865 29.8674C26.9368 29.7218 26.9967 29.5797 27.0651 29.4416C27.1474 29.2757 27.1269 29.0776 27.0124 28.9315L26.099 27.7695L27.0682 26.8088L28.2408 27.7142C28.3882 27.8277 28.5881 27.848 28.7558 27.7664C28.8949 27.6984 29.0383 27.6393 29.1852 27.5894C29.362 27.5296 29.4887 27.375 29.512 27.1913L29.6996 25.7258H31.0677L31.2519 27.188C31.275 27.3716 31.4019 27.526 31.5787 27.5858C31.7254 27.636 31.869 27.6951 32.0081 27.7631C32.1758 27.8447 32.3757 27.8244 32.5232 27.7109L33.6957 26.8055L34.665 27.766L33.7513 28.9279C33.6368 29.0743 33.6162 29.2721 33.6985 29.4383C33.7673 29.5764 33.8269 29.7185 33.8775 29.8639C33.9378 30.039 34.0936 30.1648 34.279 30.1877L35.7578 30.3738V31.7294Z" fill="#28553F"/>
<path d="M12.8758 10.9221C12.2185 11.8956 12.0153 13.1022 12.3178 14.2345L13.2589 13.9721C13.0301 13.1187 13.1828 12.209 13.678 11.4748C14.1766 10.7916 14.9357 10.3405 15.7787 10.2268L15.6616 9.26514C14.5406 9.40863 13.5308 10.0091 12.8758 10.9221Z" fill="#28553F"/>
<path d="M11.3106 13.0073C11.0819 12.1539 11.2345 11.2442 11.7298 10.5099C12.2284 9.82674 12.9874 9.37568 13.8305 9.26197L13.7134 8.30029C12.5926 8.44403 11.5833 9.04448 10.9285 9.95723C10.2713 10.9307 10.068 12.1373 10.3705 13.2697L11.3106 13.0073Z" fill="#28553F"/>
<path d="M17.2687 31.2C16.3087 31.1733 15.462 30.94 14.7287 30.5C13.9954 30.06 13.382 29.4867 12.8887 28.78C12.3954 28.06 12.022 27.2867 11.7687 26.46C11.5154 25.62 11.3887 24.8 11.3887 24C11.3887 23.1467 11.522 22.2933 11.7887 21.44C12.0687 20.5867 12.462 19.8133 12.9687 19.12C13.4887 18.4133 14.1087 17.8533 14.8287 17.44C15.5487 17.0133 16.362 16.8 17.2687 16.8C18.242 16.8 19.0887 17.0267 19.8087 17.48C20.542 17.9333 21.1554 18.52 21.6487 19.24C22.142 19.96 22.5087 20.74 22.7487 21.58C23.002 22.42 23.1287 23.2267 23.1287 24C23.1287 24.8667 22.9887 25.7267 22.7087 26.58C22.442 27.42 22.0554 28.1867 21.5487 28.88C21.042 29.5733 20.422 30.1333 19.6887 30.56C18.9687 30.9733 18.162 31.1867 17.2687 31.2ZM12.8087 24C12.8354 24.6933 12.942 25.3933 13.1287 26.1C13.3287 26.7933 13.6154 27.4333 13.9887 28.02C14.362 28.5933 14.8154 29.06 15.3487 29.42C15.8954 29.7667 16.5354 29.94 17.2687 29.94C18.0154 29.94 18.6687 29.7533 19.2287 29.38C19.7887 29.0067 20.2487 28.52 20.6087 27.92C20.982 27.3067 21.262 26.66 21.4487 25.98C21.6354 25.2867 21.7287 24.6267 21.7287 24C21.7287 23.3067 21.6287 22.6133 21.4287 21.92C21.2287 21.2133 20.9354 20.5733 20.5487 20C20.162 19.4133 19.6954 18.9467 19.1487 18.6C18.602 18.24 17.9754 18.06 17.2687 18.06C16.5087 18.06 15.8487 18.2533 15.2887 18.64C14.7287 19.0133 14.262 19.5 13.8887 20.1C13.5287 20.7 13.2554 21.3467 13.0687 22.04C12.8954 22.72 12.8087 23.3733 12.8087 24ZM29.8006 31.18C28.9606 31.18 28.2006 31.04 27.5206 30.76C26.8406 30.48 26.2873 30.0933 25.8606 29.6C25.4339 29.1067 25.1673 28.5333 25.0606 27.88L25.9006 27.12C25.9273 27.5733 26.1073 28.02 26.4406 28.46C26.7739 28.8867 27.2273 29.2333 27.8006 29.5C28.3873 29.7667 29.0539 29.9 29.8006 29.9C30.4673 29.9 31.0673 29.7867 31.6006 29.56C32.1473 29.32 32.5739 29 32.8806 28.6C33.2006 28.1867 33.3606 27.7067 33.3606 27.16C33.3606 26.5733 33.1739 26.0733 32.8006 25.66C32.4273 25.2333 31.9006 24.9067 31.2206 24.68C30.5406 24.4533 29.7339 24.34 28.8006 24.34H28.1206V23.16H28.8006C30.0939 23.16 31.1139 22.9467 31.8606 22.52C32.6073 22.0933 32.9806 21.4533 32.9806 20.6C32.9806 20.04 32.8273 19.5533 32.5206 19.14C32.2273 18.7267 31.8273 18.4067 31.3206 18.18C30.8273 17.9533 30.2873 17.84 29.7006 17.84C28.8206 17.84 28.0673 18.0333 27.4406 18.42C26.8139 18.8067 26.3739 19.2867 26.1206 19.86L25.1806 18.94C25.4339 18.46 25.7873 18.0467 26.2406 17.7C26.7073 17.3533 27.2339 17.0867 27.8206 16.9C28.4206 16.7133 29.0406 16.62 29.6806 16.62C30.5873 16.62 31.3939 16.7933 32.1006 17.14C32.8206 17.4867 33.3806 17.9533 33.7806 18.54C34.1939 19.1267 34.4006 19.8 34.4006 20.56C34.4006 21.0933 34.2939 21.5733 34.0806 22C33.8673 22.4133 33.5539 22.7667 33.1406 23.06C32.7273 23.34 32.2206 23.5533 31.6206 23.7C32.2473 23.82 32.7939 24.0533 33.2606 24.4C33.7406 24.7467 34.1073 25.1733 34.3606 25.68C34.6273 26.1733 34.7606 26.72 34.7606 27.32C34.7606 28.12 34.5273 28.8067 34.0606 29.38C33.6073 29.9533 33.0073 30.4 32.2606 30.72C31.5139 31.0267 30.6939 31.18 29.8006 31.18Z" fill="white"/>
</svg>
