<svg width="47" height="46" viewBox="0 0 47 46" fill="none" xmlns="http://www.w3.org/2000/svg">
<path d="M24.3136 6.43463C24.0101 6.15473 23.6115 5.99948 23.1979 6H15.1415C14.6174 6.00012 14.1248 6.24899 13.815 6.67008C13.5053 7.09117 13.4156 7.63406 13.5735 8.1318L15.5904 14.4881C15.8044 15.1708 16.4399 15.635 17.1579 15.6333H19.5162C19.6333 15.6341 19.7475 15.6694 19.8445 15.7348L24.9599 19.3048C25.2366 19.4976 25.5662 19.6007 25.9038 19.6H29.2504C30.1584 19.5991 30.8943 18.8661 30.8952 17.9618V13.2018C30.8946 12.7445 30.7026 12.3081 30.3655 11.9976L24.3136 6.43463ZM29.7573 17.9618C29.7573 18.2406 29.5304 18.4667 29.2504 18.4667H25.9038C25.7996 18.4667 25.6979 18.4349 25.6125 18.3754L20.4891 14.8009C20.2023 14.606 19.8634 14.5012 19.5162 14.5H17.1579C16.9366 14.5005 16.7407 14.3574 16.6749 14.147L14.6579 7.7901C14.6093 7.63667 14.6371 7.46937 14.7326 7.33964C14.8281 7.20991 14.98 7.13329 15.1415 7.13333H23.1979C23.3245 7.13369 23.4463 7.18142 23.5393 7.26707L29.5918 12.83C29.6959 12.9256 29.7551 13.0602 29.7551 13.2012L29.7573 17.9618Z" fill="#9C9C9C"/>
<path d="M38.9217 6H29.7297C29.0526 6.00008 28.4448 6.41332 28.1981 7.04126C27.9514 7.66921 28.1162 8.38356 28.6134 8.84127L30.925 10.968C31.2303 11.2472 31.6297 11.4021 32.0442 11.402C32.2001 11.4021 32.3553 11.38 32.505 11.3363L39.3859 9.3201C40.0839 9.11206 40.5633 8.47384 40.5665 7.74817V7.63823C40.5656 6.73385 39.8297 6.00094 38.9217 6ZM39.4286 7.74817C39.4269 7.97169 39.2793 8.1681 39.0645 8.23267L32.1841 10.25C32.013 10.2991 31.8286 10.2562 31.6971 10.1367L29.386 8.00883C29.233 7.8678 29.1823 7.64781 29.2582 7.4544C29.3341 7.26098 29.5212 7.13359 29.7297 7.13333H38.9217C39.2016 7.13333 39.4286 7.35938 39.4286 7.63823V7.74817Z" fill="#9C9C9C"/>
<path d="M39.9065 11.0337C39.4925 10.7223 38.9544 10.6259 38.4574 10.7742L33.2122 12.3132C32.5144 12.5211 32.0353 13.1592 32.0322 13.8846V17.9646C32.0347 18.8679 32.7701 19.5991 33.6771 19.6H34.7871C34.8326 19.6 34.8787 19.6 34.9225 19.5943L39.0571 19.2543C39.9079 19.1798 40.5619 18.4724 40.5665 17.6218V12.3467C40.569 11.8293 40.3239 11.3417 39.9065 11.0337ZM39.4286 17.6218C39.4262 17.8834 39.2254 18.1008 38.9638 18.125L34.7871 18.465H33.6771C33.3978 18.465 33.1711 18.24 33.1701 17.9618V13.8818C33.172 13.6586 33.3192 13.4625 33.5337 13.3978L38.7783 11.8582C38.8253 11.8447 38.8739 11.8379 38.9228 11.8378C39.0578 11.8379 39.1871 11.8918 39.2821 11.9873C39.3771 12.0829 39.4298 12.2122 39.4286 12.3467V17.6218Z" fill="#9C9C9C"/>
<path d="M38.7845 20.4126L36.4467 20.6059C35.7658 20.665 35.1915 21.1351 35.0016 21.7891L33.5069 27.0098C33.3442 27.5815 33.5041 28.1962 33.9251 28.6174L37.7576 32.4384C38.0617 32.7466 38.4769 32.9209 38.9108 32.9224C39.1304 32.9219 39.3478 32.8782 39.5503 32.7937C40.1697 32.5459 40.573 31.9449 40.5659 31.2802V22.0435C40.5656 21.5855 40.3728 21.1486 40.0344 20.8385C39.696 20.5285 39.2428 20.3736 38.7845 20.4115V20.4126ZM39.428 31.2802C39.428 31.4844 39.3045 31.6685 39.1151 31.7466C38.9256 31.8247 38.7076 31.7815 38.5626 31.6372L34.7302 27.8167C34.6003 27.6868 34.5511 27.4971 34.6016 27.3209L36.0962 22.1002C36.1552 21.899 36.3316 21.7543 36.5411 21.7352L38.879 21.542H38.9222C39.2015 21.5432 39.4274 21.7687 39.428 22.0469V31.2802Z" fill="#9C9C9C"/>
<path d="M8.07453 15.6333H12.5123C13.0364 15.6332 13.5291 15.3843 13.8388 14.9633C14.1486 14.5422 14.2383 13.9993 14.0804 13.5015L12.0623 7.14524C11.8483 6.46258 11.2129 5.99831 10.4948 6H8.07453C7.1665 6.00094 6.43063 6.73386 6.42969 7.63824V13.9951C6.43063 14.8995 7.1665 15.6324 8.07453 15.6333ZM7.56759 7.63824C7.56759 7.35939 7.79455 7.13334 8.07453 7.13334H10.4948C10.7162 7.13279 10.912 7.27593 10.9779 7.48637L12.9948 13.8432C13.0434 13.9967 13.0157 14.164 12.9201 14.2937C12.8246 14.4234 12.6727 14.5001 12.5112 14.5H8.07339C7.79386 14.4994 7.56759 14.2735 7.56759 13.9951V7.63824Z" fill="#9C9C9C"/>
<path d="M7.34001 30.8201C7.89674 31.0998 8.56473 31.0398 9.06223 30.6654L11.1975 29.0725C11.7156 28.6837 11.9569 28.0287 11.8142 27.3985L9.6784 18.0417C9.49269 17.2285 8.72318 16.684 7.89103 16.7771C7.05889 16.8701 6.42974 17.5709 6.42969 18.405V29.3569C6.42857 29.9775 6.78154 30.5448 7.34001 30.8201ZM7.56759 18.405C7.56792 18.1484 7.76134 17.9329 8.01726 17.9039C8.27318 17.875 8.51024 18.0417 8.56838 18.2916L10.7042 27.6496C10.7486 27.8438 10.6744 28.0458 10.5148 28.1658L8.37892 29.761C8.22529 29.8758 8.01965 29.8944 7.84782 29.8088C7.67599 29.7232 7.56749 29.5483 7.56759 29.3569V18.405Z" fill="#9C9C9C"/>
<path d="M13.5916 39.9998C14.1418 40.0006 14.6557 39.7265 14.96 39.27L17.8457 34.9565C18.1385 34.518 18.202 33.9661 18.0164 33.473L17.1163 31.0845C16.9271 30.5811 16.5017 30.2024 15.9784 30.0713L13.5752 29.4706C13.0943 29.349 12.5839 29.4516 12.188 29.7494L7.08683 33.5585C6.67427 33.869 6.43115 34.3537 6.42969 34.8687V38.3616C6.43063 39.266 7.1665 39.9989 8.07453 39.9998H13.5916ZM7.56759 38.3616V34.8687C7.56816 34.71 7.64282 34.5607 7.76957 34.4646L12.8697 30.6555C12.957 30.59 13.0635 30.5546 13.1729 30.5546C13.2145 30.5547 13.256 30.5599 13.2964 30.5699L15.7002 31.1706C15.8616 31.2109 15.9928 31.3276 16.0512 31.4828L16.9513 33.8719C17.0074 34.0228 16.9878 34.1912 16.8984 34.3252L14.0132 38.6398C13.9198 38.7811 13.7615 38.8662 13.5916 38.8665H8.07282C7.79351 38.8656 7.56759 38.6398 7.56759 38.3616Z" fill="#9C9C9C"/>
<path d="M24.1287 34.8999H20.1301C19.5813 34.9003 19.0689 35.1737 18.7646 35.6286L17.5425 37.4527C17.2065 37.9552 17.1751 38.601 17.4608 39.1335C17.7465 39.6659 18.303 39.9988 18.9091 39.9999H24.1287C25.0367 39.999 25.7726 39.2661 25.7735 38.3617V36.5381C25.7726 35.6338 25.0367 34.9008 24.1287 34.8999ZM24.6356 38.3617C24.6356 38.6405 24.4087 38.8666 24.1287 38.8666H18.9091C18.7221 38.8667 18.5503 38.7643 18.462 38.6001C18.3737 38.436 18.3833 38.2367 18.487 38.0817L19.7091 36.2599C19.8022 36.1187 19.9604 36.0335 20.1301 36.0332H24.1287C24.4087 36.0332 24.6356 36.2593 24.6356 36.5381V38.3617Z" fill="#9C9C9C"/>
<path d="M33.7646 30.0595C33.1211 29.4227 32.0822 29.4227 31.4387 30.0595L27.394 34.0885C27.0844 34.3951 26.9108 34.8124 26.9121 35.2473V38.364C26.9143 39.2675 27.6498 39.999 28.557 40H38.9221C39.8301 39.999 40.566 39.2661 40.567 38.3617V37.5066C40.5658 37.0721 40.3924 36.6556 40.0845 36.3478L33.7646 30.0595ZM39.429 38.3617C39.429 38.6406 39.2021 38.8666 38.9221 38.8666H28.557C28.277 38.8666 28.05 38.6406 28.05 38.3617V35.2451C28.0498 35.1111 28.1033 34.9826 28.1985 34.8881L32.2432 30.8596C32.4412 30.6625 32.7621 30.6625 32.9601 30.8596L39.2806 37.1496C39.3752 37.2446 39.4285 37.3728 39.429 37.5066V38.3617Z" fill="#9C9C9C"/>
<path d="M23.6037 20.3849C23.5409 19.9327 23.2921 19.5268 22.9169 19.2646L19.761 17.0631C19.4844 16.8699 19.1548 16.7664 18.8171 16.7667H12.6183C12.1181 16.7668 11.6451 16.9935 11.3331 17.3828C11.021 17.7722 10.9037 18.2818 11.0145 18.7676L12.9415 27.22C13.0772 27.8239 13.5447 28.2991 14.1482 28.4463L16.0218 28.9115C16.637 29.0629 17.2849 28.8499 17.6888 28.3636L23.2429 21.648C23.5342 21.2952 23.6649 20.8376 23.6037 20.3849ZM22.365 20.9272L16.8104 27.6433C16.6868 27.7934 16.4876 27.8595 16.2983 27.8133L14.4242 27.3487C14.2377 27.3019 14.0939 27.1539 14.0532 26.9667L12.1245 18.5166C12.0902 18.3669 12.1262 18.2099 12.2223 18.0899C12.3184 17.9699 12.4642 17.9 12.6183 17.9001H18.8199C18.9242 17.8999 19.026 17.932 19.1112 17.9919L22.2672 20.1928C22.3836 20.2735 22.4608 20.3991 22.4799 20.5391C22.4991 20.6791 22.4584 20.8207 22.3679 20.9295L22.365 20.9272Z" fill="#9C9C9C"/>
<path d="M31.7954 28.0999C31.9926 27.9031 32.1363 27.6596 32.213 27.3922L33.5255 22.8197C33.6666 22.3257 33.5669 21.7943 33.2562 21.3844C32.9454 20.9744 32.4596 20.7334 31.9438 20.7333H26.2486C25.7567 20.7321 25.2903 20.9512 24.9782 21.33L18.4921 29.1766C18.1196 29.6292 18.0169 30.245 18.2224 30.7933L18.9427 32.7041C19.1849 33.3426 19.7982 33.7655 20.4835 33.7666H25.4259C25.8624 33.7677 26.2811 33.5949 26.5889 33.2866L31.7954 28.0999ZM25.4259 32.6333H20.4835C20.2727 32.6318 20.0844 32.5018 20.0089 32.3057L19.2887 30.3961C19.225 30.227 19.2567 30.037 19.3717 29.8974L25.8578 22.0502C25.9536 21.9335 26.0972 21.866 26.2486 21.8666H31.9438C32.103 21.8665 32.2529 21.9409 32.3486 22.0674C32.4444 22.194 32.4749 22.358 32.4309 22.5103L31.1189 27.0833C31.0949 27.1653 31.0507 27.2399 30.9903 27.3004L25.7844 32.4854C25.6895 32.5803 25.5604 32.6336 25.4259 32.6333Z" fill="#9C9C9C"/>
<path d="M46.5927 23C46.5927 35.7025 36.2537 46 23.5 46C10.7462 46 0.407227 35.7025 0.407227 23C0.407227 10.2975 10.7462 0 23.5 0C36.2537 0 46.5927 10.2975 46.5927 23Z" fill="#28553F"/>
<path d="M46.5927 23C46.5927 35.7025 36.2537 46 23.5 46C10.7462 46 0.407227 35.7025 0.407227 23C0.407227 10.2975 10.7462 0 23.5 0C36.2537 0 46.5927 10.2975 46.5927 23Z" stroke="#9C9C9C"/>
<path d="M28.4469 18.9465C28.4469 16.2725 26.2596 14.105 23.5614 14.105C20.8633 14.105 18.6758 16.2725 18.6758 18.9465C18.6758 21.6204 20.8633 23.788 23.5614 23.788C26.2585 23.7851 28.4441 21.6192 28.4469 18.9465ZM23.5614 22.8197C21.4029 22.8197 19.6529 21.0857 19.6529 18.9465C19.6529 16.8073 21.4029 15.0733 23.5614 15.0733C25.72 15.0733 27.4698 16.8073 27.4698 18.9465C27.4674 21.0845 25.7191 22.8173 23.5614 22.8197Z" fill="#28553F"/>
<path d="M36.0803 29.4345L34.7446 29.2688L35.5712 28.2159C35.8081 27.9125 35.7809 27.4823 35.5077 27.2107L34.2775 25.9915C34.0036 25.7203 33.5689 25.6932 33.2629 25.9281L32.2001 26.7473L32.0536 25.595L32.2392 25.4106C32.5877 25.0653 32.6223 24.5166 32.3194 24.131L30.7072 22.0737C30.7582 21.9589 30.805 21.8475 30.8477 21.7397L33.4504 21.4182C33.9404 21.3593 34.3092 20.9473 34.3097 20.4581V17.4368C34.3085 16.9487 33.9408 16.5378 33.4518 16.4782L30.8467 16.1562C30.8045 16.0484 30.7575 15.9371 30.706 15.8222L32.3184 13.7694C32.6228 13.3813 32.5882 12.8293 32.2378 12.4815L30.0831 10.3463C29.7346 10.0009 29.1809 9.96683 28.7918 10.2668L26.7158 11.8671C26.6003 11.8165 26.488 11.7699 26.3787 11.7276L26.0528 9.14862C25.9939 8.66304 25.5791 8.29732 25.0855 8.2959H21.9367C21.4439 8.29613 21.0292 8.66209 20.9717 9.14697L20.6509 11.729C20.5447 11.7706 20.4362 11.8162 20.3243 11.8657L18.287 10.2765C17.8941 9.9699 17.3313 10.0047 16.9797 10.3574L14.8543 12.4879C14.5118 12.8326 14.4777 13.3749 14.7747 13.7593L16.3737 15.8208C16.3251 15.9359 16.2762 16.0472 16.2342 16.1557L13.6675 16.4782C13.1799 16.5392 12.8137 16.9496 12.8125 17.4368V20.4581C12.8135 20.9444 13.1785 21.3546 13.6651 21.4168L16.2361 21.7383C16.2785 21.8466 16.3251 21.9579 16.3759 22.0733L14.7766 24.1352C14.4798 24.5196 14.5137 25.0622 14.8562 25.4071L16.9811 27.5376C17.3327 27.8906 17.8957 27.9253 18.2891 27.6185L20.3264 26.0293C20.4383 26.0778 20.5466 26.1263 20.6528 26.166L20.9732 28.7459C21.0302 29.231 21.4439 29.5974 21.9367 29.5991H24.3526C24.1649 29.7386 24.053 29.9565 24.0497 30.1894V31.9138C24.0501 32.2972 24.3381 32.6206 24.7222 32.6686L26.0579 32.8343L25.2312 33.8873C24.9944 34.1906 25.0215 34.6209 25.2947 34.8925L26.525 36.1116C26.7991 36.3823 27.2332 36.4095 27.5396 36.175L28.6023 35.3558L28.7693 36.6795C28.8178 37.0599 29.1441 37.3452 29.5311 37.3457H31.2714C31.6583 37.3452 31.9847 37.0599 32.0331 36.6795L32.2001 35.3558L33.2629 36.175C33.5687 36.4098 34.0031 36.3828 34.277 36.1121L35.5072 34.893C35.7809 34.6213 35.8083 34.1908 35.5712 33.8873L34.7446 32.8343L36.0803 32.6686C36.4643 32.6206 36.7523 32.2972 36.7525 31.9138V30.1894C36.752 29.8059 36.4641 29.4828 36.0803 29.4345ZM21.5863 25.7549C21.5634 25.5702 21.4355 25.4149 21.2575 25.3553C20.9901 25.2636 20.7291 25.1551 20.4758 25.03C20.3074 24.9485 20.1067 24.9697 19.9595 25.0846L17.6772 26.8577L15.5517 24.7274L17.3299 22.4336C17.442 22.2891 17.4628 22.0943 17.3838 21.93C17.2588 21.6752 17.1502 21.413 17.0589 21.1447C16.9997 20.9674 16.8432 20.8395 16.6562 20.8158L13.7896 20.4581V17.4378L16.6586 17.0796C16.8456 17.0562 17.0023 16.9281 17.0613 16.7508C17.1529 16.4825 17.2614 16.2203 17.3862 15.9654C17.4654 15.8011 17.4444 15.6063 17.3325 15.4619L15.5486 13.1685L17.6827 11.0382L19.9564 12.8118C20.1039 12.9267 20.3045 12.9479 20.4729 12.8664C20.7263 12.7413 20.9873 12.6328 21.2547 12.5411C21.4326 12.4815 21.5605 12.3264 21.5834 12.1415L21.9367 9.26422H25.0845L25.4462 12.1401C25.4691 12.3255 25.5977 12.481 25.7764 12.5401C26.0474 12.6316 26.3119 12.7404 26.5689 12.8654C26.7361 12.9451 26.9343 12.9243 27.0808 12.8113L29.3922 11.0295L31.5464 13.1718L29.752 15.4614C29.6379 15.6066 29.6167 15.8033 29.6971 15.969C29.8235 16.2234 29.933 16.4858 30.0256 16.7543C30.085 16.9314 30.2422 17.0586 30.429 17.0815L33.3325 17.4368V20.4572L30.4304 20.8153C30.2436 20.8383 30.0867 20.9657 30.027 21.1428C29.9345 21.4111 29.825 21.6735 29.6985 21.9279C29.6181 22.0936 29.6394 22.2903 29.7534 22.4355L31.5507 24.726L31.4806 24.7957C31.4128 24.7733 31.3424 24.7603 31.2714 24.7574H29.5311C29.1441 24.7579 28.8178 25.0433 28.7693 25.4236L28.6584 26.301L27.0813 25.0823C26.9348 24.9693 26.7361 24.9482 26.5689 25.0281C26.3119 25.1532 26.0474 25.2619 25.7764 25.3534C25.5979 25.4125 25.4693 25.5679 25.4462 25.753L25.2541 27.2698C25.137 27.409 25.0747 27.5858 25.0793 27.7669C25.0552 27.8125 25.0387 27.8615 25.0304 27.9123L24.9433 28.6308H21.9436L21.5863 25.7549ZM25.8439 28.9986L26.0579 29.2714L25.6225 29.3251C25.7184 29.2317 25.7938 29.1199 25.8439 28.9962V28.9986ZM35.7754 31.7294L34.3001 31.9119C34.1148 31.935 33.9587 32.0606 33.8984 32.2357C33.848 32.3814 33.7882 32.5234 33.7195 32.6615C33.6374 32.8275 33.6579 33.0256 33.7724 33.1717L34.6859 34.3336L33.7166 35.2977L32.5441 34.3923C32.3966 34.2788 32.1967 34.2584 32.029 34.34C31.8899 34.4081 31.7466 34.4672 31.5996 34.5173C31.4228 34.5771 31.2959 34.7315 31.2728 34.9152L31.0853 36.3774H29.7171L29.533 34.9152C29.5098 34.7315 29.3829 34.5771 29.2061 34.5173C29.0594 34.4672 28.9158 34.4081 28.7767 34.34C28.609 34.2584 28.4091 34.2788 28.2617 34.3923L27.0892 35.2977L26.1165 34.3372L27.03 33.1752C27.1445 33.0289 27.165 32.831 27.0827 32.6648C27.0142 32.5268 26.9544 32.3847 26.904 32.2393C26.8437 32.0641 26.6877 31.9383 26.5023 31.9154L25.0268 31.7294V30.3738L26.5023 30.1913C26.6877 30.1681 26.8437 30.0426 26.904 29.8674C26.9544 29.7218 27.0142 29.5797 27.0827 29.4416C27.165 29.2757 27.1445 29.0776 27.03 28.9315L26.1165 27.7695L27.0858 26.8088L28.2583 27.7142C28.4058 27.8277 28.6057 27.848 28.7734 27.7664C28.9125 27.6984 29.0558 27.6393 29.2028 27.5894C29.3796 27.5296 29.5062 27.375 29.5296 27.1913L29.7171 25.7258H31.0853L31.2694 27.188C31.2926 27.3716 31.4195 27.526 31.5963 27.5858C31.743 27.636 31.8866 27.6951 32.0257 27.7631C32.1934 27.8447 32.3933 27.8244 32.5407 27.7109L33.7133 26.8055L34.6825 27.766L33.7688 28.9279C33.6543 29.0743 33.6338 29.2721 33.7161 29.4383C33.7848 29.5764 33.8445 29.7185 33.895 29.8639C33.9554 30.039 34.1112 30.1648 34.2965 30.1877L35.7754 30.3738V31.7294Z" fill="#28553F"/>
<path d="M12.8933 10.9221C12.2361 11.8956 12.0329 13.1022 12.3354 14.2345L13.2764 13.9721C13.0477 13.1187 13.2003 12.209 13.6956 11.4748C14.1942 10.7916 14.9532 10.3405 15.7963 10.2268L15.6792 9.26514C14.5582 9.40863 13.5484 10.0091 12.8933 10.9221Z" fill="#28553F"/>
<path d="M11.3282 13.0073C11.0995 12.1539 11.2521 11.2442 11.7474 10.5099C12.2459 9.82674 13.005 9.37568 13.8481 9.26197L13.7309 8.30029C12.6102 8.44403 11.6009 9.04448 10.9461 9.95723C10.2888 10.9307 10.0856 12.1373 10.3881 13.2697L11.3282 13.0073Z" fill="#28553F"/>
<path d="M17.2863 31.2C16.3263 31.1733 15.4796 30.94 14.7463 30.5C14.013 30.06 13.3996 29.4867 12.9063 28.78C12.413 28.06 12.0396 27.2867 11.7863 26.46C11.533 25.62 11.4063 24.8 11.4063 24C11.4063 23.1467 11.5396 22.2933 11.8063 21.44C12.0863 20.5867 12.4796 19.8133 12.9863 19.12C13.5063 18.4133 14.1263 17.8533 14.8463 17.44C15.5663 17.0133 16.3796 16.8 17.2863 16.8C18.2596 16.8 19.1063 17.0267 19.8263 17.48C20.5596 17.9333 21.173 18.52 21.6663 19.24C22.1596 19.96 22.5263 20.74 22.7663 21.58C23.0196 22.42 23.1463 23.2267 23.1463 24C23.1463 24.8667 23.0063 25.7267 22.7263 26.58C22.4596 27.42 22.073 28.1867 21.5663 28.88C21.0596 29.5733 20.4396 30.1333 19.7063 30.56C18.9863 30.9733 18.1796 31.1867 17.2863 31.2ZM12.8263 24C12.853 24.6933 12.9596 25.3933 13.1463 26.1C13.3463 26.7933 13.633 27.4333 14.0063 28.02C14.3796 28.5933 14.833 29.06 15.3663 29.42C15.913 29.7667 16.553 29.94 17.2863 29.94C18.033 29.94 18.6863 29.7533 19.2463 29.38C19.8063 29.0067 20.2663 28.52 20.6263 27.92C20.9996 27.3067 21.2796 26.66 21.4663 25.98C21.653 25.2867 21.7463 24.6267 21.7463 24C21.7463 23.3067 21.6463 22.6133 21.4463 21.92C21.2463 21.2133 20.953 20.5733 20.5663 20C20.1796 19.4133 19.713 18.9467 19.1663 18.6C18.6196 18.24 17.993 18.06 17.2863 18.06C16.5263 18.06 15.8663 18.2533 15.3063 18.64C14.7463 19.0133 14.2796 19.5 13.9063 20.1C13.5463 20.7 13.273 21.3467 13.0863 22.04C12.913 22.72 12.8263 23.3733 12.8263 24ZM31.6182 31V27.2H24.6382V25.98L32.0382 16.8H32.9782V25.96H34.7382V27.2H32.9782V31H31.6182ZM26.0982 25.96H31.7382V18.92L26.0982 25.96Z" fill="white"/>
</svg>
