<svg width="46" height="46" viewBox="0 0 46 46" fill="none" xmlns="http://www.w3.org/2000/svg">
<path d="M23.8122 6.43463C23.5099 6.15473 23.1129 5.99948 22.7009 6H14.6769C14.1549 6.00012 13.6642 6.24899 13.3558 6.67008C13.0473 7.09117 12.9579 7.63406 13.1152 8.1318L15.124 14.4881C15.3372 15.1708 15.97 15.635 16.6852 15.6333H19.034C19.1506 15.6341 19.2644 15.6694 19.361 15.7348L24.4559 19.3048C24.7314 19.4976 25.0597 19.6007 25.396 19.6H28.7291C29.6335 19.5991 30.3664 18.8661 30.3674 17.9618V13.2018C30.3667 12.7445 30.1755 12.3081 29.8398 11.9976L23.8122 6.43463ZM29.234 17.9618C29.234 18.2406 29.008 18.4667 28.7291 18.4667H25.396C25.2922 18.4667 25.1909 18.4349 25.1059 18.3754L20.003 14.8009C19.7173 14.606 19.3798 14.5012 19.034 14.5H16.6852C16.4648 14.5005 16.2697 14.3574 16.2041 14.147L14.1953 7.7901C14.1469 7.63667 14.1745 7.46937 14.2696 7.33964C14.3648 7.20991 14.516 7.13329 14.6769 7.13333H22.7009C22.827 7.13369 22.9484 7.18142 23.0409 7.26707L29.0691 12.83C29.1728 12.9256 29.2318 13.0602 29.2318 13.2012L29.234 17.9618Z" fill="#9C9C9C"/>
<path d="M38.3615 6H29.2065C28.5322 6.00008 27.9268 6.41332 27.6811 7.04126C27.4353 7.66921 27.5995 8.38356 28.0947 8.84127L30.397 10.968C30.7011 11.2472 31.0989 11.4021 31.5117 11.402C31.667 11.4021 31.8216 11.38 31.9707 11.3363L38.8239 9.3201C39.5192 9.11206 39.9965 8.47384 39.9998 7.74817V7.63823C39.9988 6.73385 39.2659 6.00094 38.3615 6ZM38.8664 7.74817C38.8648 7.97169 38.7178 8.1681 38.5038 8.23267L31.6511 10.25C31.4807 10.2991 31.297 10.2562 31.166 10.1367L28.8642 8.00883C28.7118 7.8678 28.6612 7.64781 28.7369 7.4544C28.8125 7.26098 28.9988 7.13359 29.2065 7.13333H38.3615C38.6404 7.13333 38.8664 7.35938 38.8664 7.63823V7.74817Z" fill="#9C9C9C"/>
<path d="M39.3427 11.0337C38.9303 10.7223 38.3943 10.6259 37.8994 10.7742L32.6753 12.3132C31.9802 12.5211 31.503 13.1592 31.5 13.8846V17.9646C31.5025 18.8679 32.235 19.5991 33.1382 19.6H34.2438C34.2891 19.6 34.335 19.6 34.3787 19.5943L38.4966 19.2543C39.344 19.1798 39.9954 18.4724 40 17.6218V12.3467C40.0025 11.8293 39.7584 11.3417 39.3427 11.0337ZM38.8667 17.6218C38.8643 17.8834 38.6643 18.1008 38.4037 18.125L34.2438 18.465H33.1382C32.86 18.465 32.6343 18.24 32.6333 17.9618V13.8818C32.6352 13.6586 32.7819 13.4625 32.9954 13.3978L38.219 11.8582C38.2658 11.8447 38.3142 11.8379 38.3629 11.8378C38.4973 11.8379 38.6262 11.8918 38.7208 11.9873C38.8154 12.0829 38.8679 12.2122 38.8667 12.3467V17.6218Z" fill="#9C9C9C"/>
<path d="M38.225 20.4126L35.8965 20.6059C35.2184 20.665 34.6464 21.1351 34.4572 21.7891L32.9686 27.0098C32.8065 27.5815 32.9658 28.1962 33.3851 28.6174L37.2021 32.4384C37.5051 32.7466 37.9186 32.9209 38.3508 32.9224C38.5695 32.9219 38.786 32.8782 38.9877 32.7937C39.6046 32.5459 40.0062 31.9449 39.9992 31.2802V22.0435C39.9989 21.5855 39.8069 21.1486 39.4699 20.8385C39.1328 20.5285 38.6814 20.3736 38.225 20.4115V20.4126ZM38.8659 31.2802C38.8659 31.4844 38.7428 31.6685 38.5542 31.7466C38.3655 31.8247 38.1484 31.7815 38.004 31.6372L34.1869 27.8167C34.0576 27.6868 34.0086 27.4971 34.0588 27.3209L35.5475 22.1002C35.6062 21.899 35.782 21.7543 35.9906 21.7352L38.319 21.542H38.3621C38.6403 21.5432 38.8653 21.7687 38.8659 22.0469V31.2802Z" fill="#9C9C9C"/>
<path d="M7.63823 15.6333H12.0582C12.5802 15.6332 13.0709 15.3843 13.3794 14.9633C13.6879 14.5422 13.7772 13.9993 13.62 13.5015L11.61 7.14524C11.3969 6.46258 10.764 5.99831 10.0488 6H7.63823C6.73385 6.00094 6.00094 6.73386 6 7.63824V13.9951C6.00094 14.8995 6.73385 15.6324 7.63823 15.6333ZM7.13333 7.63824C7.13333 7.35939 7.35938 7.13334 7.63823 7.13334H10.0488C10.2693 7.13279 10.4643 7.27593 10.5299 7.48637L12.5388 13.8432C12.5872 13.9967 12.5595 14.164 12.4644 14.2937C12.3692 14.4234 12.218 14.5001 12.0571 14.5H7.6371C7.35869 14.4994 7.13333 14.2735 7.13333 13.9951V7.63824Z" fill="#9C9C9C"/>
<path d="M6.90667 30.8201C7.46116 31.0998 8.12647 31.0398 8.62197 30.6654L10.7487 29.0725C11.2647 28.6837 11.505 28.0287 11.3629 27.3985L9.23567 18.0417C9.0507 17.2285 8.28428 16.684 7.45548 16.7771C6.62667 16.8701 6.00006 17.5709 6 18.405V29.3569C5.99888 29.9775 6.35044 30.5448 6.90667 30.8201ZM7.13334 18.405C7.13366 18.1484 7.32631 17.9329 7.5812 17.9039C7.83609 17.875 8.07219 18.0417 8.1301 18.2916L10.2574 27.6496C10.3015 27.8438 10.2277 28.0458 10.0687 28.1658L7.9414 29.761C7.78839 29.8758 7.58358 29.8944 7.41244 29.8088C7.24129 29.7232 7.13323 29.5483 7.13334 29.3569V18.405Z" fill="#9C9C9C"/>
<path d="M13.1332 39.9998C13.6812 40.0006 14.193 39.7265 14.496 39.27L17.3702 34.9565C17.6618 34.518 17.7251 33.9661 17.5402 33.473L16.6437 31.0845C16.4552 30.5811 16.0316 30.2024 15.5104 30.0713L13.1168 29.4706C12.6378 29.349 12.1295 29.4516 11.7352 29.7494L6.6545 33.5585C6.2436 33.869 6.00146 34.3537 6 34.8687V38.3616C6.00094 39.266 6.73385 39.9989 7.63823 39.9998H13.1332ZM7.13333 38.3616V34.8687C7.1339 34.71 7.20826 34.5607 7.3345 34.4646L12.4141 30.6555C12.5011 30.59 12.6072 30.5546 12.7161 30.5546C12.7576 30.5547 12.7989 30.5599 12.8391 30.5699L15.2333 31.1706C15.394 31.2109 15.5247 31.3276 15.5829 31.4828L16.4794 33.8719C16.5353 34.0228 16.5157 34.1912 16.4267 34.3252L13.5531 38.6398C13.4601 38.7811 13.3023 38.8662 13.1332 38.8665H7.63653C7.35835 38.8656 7.13333 38.6398 7.13333 38.3616Z" fill="#9C9C9C"/>
<path d="M23.6285 34.8999H19.6459C19.0993 34.9003 18.589 35.1737 18.2859 35.6286L17.0687 37.4527C16.7341 37.9552 16.7028 38.601 16.9874 39.1335C17.2719 39.6659 17.8261 39.9988 18.4299 39.9999H23.6285C24.5328 39.999 25.2658 39.2661 25.2667 38.3617V36.5381C25.2658 35.6338 24.5328 34.9008 23.6285 34.8999ZM24.1334 38.3617C24.1334 38.6405 23.9073 38.8666 23.6285 38.8666H18.4299C18.2436 38.8667 18.0725 38.7643 17.9845 38.6001C17.8966 38.436 17.9062 38.2367 18.0094 38.0817L19.2266 36.2599C19.3194 36.1187 19.4769 36.0335 19.6459 36.0332H23.6285C23.9073 36.0332 24.1334 36.2593 24.1334 36.5381V38.3617Z" fill="#9C9C9C"/>
<path d="M33.2253 30.0595C32.5844 29.4227 31.5497 29.4227 30.9088 30.0595L26.8804 34.0885C26.572 34.3951 26.3991 34.8124 26.4004 35.2473V38.364C26.4026 39.2675 27.1351 39.999 28.0386 40H38.3622C39.2665 39.999 39.9995 39.2661 40.0004 38.3617V37.5066C39.9992 37.0721 39.8265 36.6556 39.5199 36.3478L33.2253 30.0595ZM38.8671 38.3617C38.8671 38.6406 38.641 38.8666 38.3622 38.8666H28.0386C27.7598 38.8666 27.5337 38.6406 27.5337 38.3617V35.2451C27.5336 35.1111 27.5868 34.9826 27.6816 34.8881L31.7101 30.8596C31.9072 30.6625 32.2269 30.6625 32.4241 30.8596L38.7192 37.1496C38.8134 37.2446 38.8665 37.3728 38.8671 37.5066V38.3617Z" fill="#9C9C9C"/>
<path d="M23.1047 20.3849C23.0422 19.9327 22.7944 19.5268 22.4207 19.2646L19.2774 17.0631C19.002 16.8699 18.6737 16.7664 18.3373 16.7667H12.1635C11.6653 16.7668 11.1942 16.9935 10.8834 17.3828C10.5725 17.7722 10.4558 18.2818 10.5661 18.7676L12.4854 27.22C12.6205 27.8239 13.0862 28.2991 13.6873 28.4463L15.5533 28.9115C16.166 29.0629 16.8113 28.8499 17.2136 28.3636L22.7454 21.648C23.0355 21.2952 23.1657 20.8376 23.1047 20.3849ZM21.8711 20.9272L16.3387 27.6433C16.2156 27.7934 16.0172 27.8595 15.8287 27.8133L13.9621 27.3487C13.7763 27.3019 13.6332 27.1539 13.5926 26.9667L11.6716 18.5166C11.6375 18.3669 11.6733 18.2099 11.7691 18.0899C11.8648 17.9699 12.01 17.9 12.1635 17.9001H18.3402C18.444 17.8999 18.5454 17.932 18.6303 17.9919L21.7736 20.1928C21.8896 20.2735 21.9664 20.3991 21.9855 20.5391C22.0045 20.6791 21.9641 20.8207 21.8739 20.9295L21.8711 20.9272Z" fill="#9C9C9C"/>
<path d="M31.2639 28.0999C31.4603 27.9031 31.6034 27.6596 31.6798 27.3922L32.9871 22.8197C33.1276 22.3257 33.0283 21.7943 32.7188 21.3844C32.4093 20.9744 31.9254 20.7334 31.4118 20.7333H25.7394C25.2494 20.7321 24.7849 20.9512 24.4741 21.33L18.0141 29.1766C17.643 29.6292 17.5407 30.245 17.7455 30.7933L18.4629 32.7041C18.7041 33.3426 19.3149 33.7655 19.9974 33.7666H24.92C25.3547 33.7677 25.7718 33.5949 26.0783 33.2866L31.2639 28.0999ZM24.92 32.6333H19.9974C19.7875 32.6318 19.5999 32.5018 19.5248 32.3057L18.8074 30.3961C18.744 30.227 18.7756 30.037 18.8901 29.8974L25.3501 22.0502C25.4456 21.9335 25.5886 21.866 25.7394 21.8666H31.4118C31.5702 21.8665 31.7196 21.9409 31.8149 22.0674C31.9103 22.194 31.9406 22.358 31.8968 22.5103L30.5901 27.0833C30.5662 27.1653 30.5222 27.2399 30.462 27.3004L25.277 32.4854C25.1825 32.5803 25.054 32.6336 24.92 32.6333Z" fill="#9C9C9C"/>
<circle cx="23" cy="23" r="23" fill="#28553F"/>
<circle cx="23" cy="23" r="23" stroke="#9C9C9C"/>
<path d="M27.9272 18.9465C27.9272 16.2725 25.7487 14.105 23.0613 14.105C20.3741 14.105 18.1953 16.2725 18.1953 18.9465C18.1953 21.6204 20.3741 23.788 23.0613 23.788C25.7475 23.7851 27.9244 21.6192 27.9272 18.9465ZM23.0613 22.8197C20.9115 22.8197 19.1685 21.0857 19.1685 18.9465C19.1685 16.8073 20.9115 15.0733 23.0613 15.0733C25.2113 15.0733 26.954 16.8073 26.954 18.9465C26.9517 21.0845 25.2103 22.8173 23.0613 22.8197Z" fill="#28553F"/>
<path d="M35.5298 29.4345L34.1994 29.2688L35.0227 28.2159C35.2587 27.9125 35.2316 27.4823 34.9595 27.2107L33.7342 25.9915C33.4615 25.7203 33.0285 25.6932 32.7237 25.9281L31.6652 26.7473L31.5193 25.595L31.7041 25.4106C32.0513 25.0653 32.0857 24.5166 31.784 24.131L30.1783 22.0737C30.2291 21.9589 30.2757 21.8475 30.3182 21.7397L32.9105 21.4182C33.3985 21.3593 33.7658 20.9473 33.7663 20.4581V17.4368C33.7651 16.9487 33.399 16.5378 32.9119 16.4782L30.3173 16.1562C30.2752 16.0484 30.2284 15.9371 30.1771 15.8222L31.783 13.7694C32.0862 13.3813 32.0518 12.8293 31.7027 12.4815L29.5567 10.3463C29.2096 10.0009 28.6581 9.96683 28.2706 10.2668L26.2029 11.8671C26.0879 11.8165 25.976 11.7699 25.8672 11.7276L25.5426 9.14862C25.484 8.66304 25.0708 8.29732 24.5792 8.2959H21.443C20.9522 8.29613 20.5392 8.66209 20.4819 9.14697L20.1624 11.729C20.0566 11.7706 19.9485 11.8162 19.8371 11.8657L17.808 10.2765C17.4166 9.9699 16.8561 10.0047 16.5059 10.3574L14.3891 12.4879C14.0479 12.8326 14.0139 13.3749 14.3097 13.7593L15.9024 15.8208C15.8539 15.9359 15.8052 16.0472 15.7634 16.1557L13.207 16.4782C12.7214 16.5392 12.3567 16.9496 12.3555 17.4368V20.4581C12.3564 20.9444 12.72 21.3546 13.2047 21.4168L15.7653 21.7383C15.8076 21.8466 15.8539 21.9579 15.9045 22.0733L14.3116 24.1352C14.0161 24.5196 14.0498 25.0622 14.391 25.4071L16.5073 27.5376C16.8576 27.8906 17.4183 27.9253 17.8101 27.6185L19.8392 26.0293C19.9507 26.0778 20.0585 26.1263 20.1643 26.166L20.4834 28.7459C20.5402 29.231 20.9522 29.5974 21.443 29.5991H23.8492C23.6623 29.7386 23.5508 29.9565 23.5475 30.1894V31.9138C23.548 32.2972 23.8348 32.6206 24.2173 32.6686L25.5476 32.8343L24.7243 33.8873C24.4884 34.1906 24.5155 34.6209 24.7875 34.8925L26.0129 36.1116C26.2859 36.3823 26.7183 36.4095 27.0234 36.175L28.0819 35.3558L28.2482 36.6795C28.2965 37.0599 28.6215 37.3452 29.0069 37.3457H30.7402C31.1256 37.3452 31.4506 37.0599 31.4989 36.6795L31.6652 35.3558L32.7237 36.175C33.0283 36.4098 33.461 36.3828 33.7337 36.1121L34.9591 34.893C35.2316 34.6213 35.2589 34.1908 35.0227 33.8873L34.1994 32.8343L35.5298 32.6686C35.9123 32.6206 36.1991 32.2972 36.1993 31.9138V30.1894C36.1989 29.8059 35.9121 29.4828 35.5298 29.4345ZM21.094 25.7549C21.0712 25.5702 20.9438 25.4149 20.7666 25.3553C20.5002 25.2636 20.2403 25.1551 19.988 25.03C19.8202 24.9485 19.6204 24.9697 19.4738 25.0846L17.2007 26.8577L15.0836 24.7274L16.8547 22.4336C16.9664 22.2891 16.9871 22.0943 16.9084 21.93C16.7839 21.6752 16.6758 21.413 16.5848 21.1447C16.5259 20.9674 16.37 20.8395 16.1837 20.8158L13.3287 20.4581V17.4378L16.1861 17.0796C16.3724 17.0562 16.5285 16.9281 16.5872 16.7508C16.6784 16.4825 16.7865 16.2203 16.9108 15.9654C16.9897 15.8011 16.9688 15.6063 16.8573 15.4619L15.0805 13.1685L17.2061 11.0382L19.4707 12.8118C19.6175 12.9267 19.8174 12.9479 19.9851 12.8664C20.2375 12.7413 20.4974 12.6328 20.7637 12.5411C20.941 12.4815 21.0683 12.3264 21.0912 12.1415L21.443 9.26422H24.5782L24.9384 12.1401C24.9612 12.3255 25.0893 12.481 25.2673 12.5401C25.5372 12.6316 25.8007 12.7404 26.0566 12.8654C26.2231 12.9451 26.4206 12.9243 26.5665 12.8113L28.8686 11.0295L31.0141 13.1718L29.2269 15.4614C29.1133 15.6066 29.0922 15.8033 29.1723 15.969C29.2982 16.2234 29.4072 16.4858 29.4994 16.7543C29.5586 16.9314 29.7152 17.0586 29.9012 17.0815L32.7931 17.4368V20.4572L29.9026 20.8153C29.7166 20.8383 29.5603 20.9657 29.5009 21.1428C29.4087 21.4111 29.2996 21.6735 29.1737 21.9279C29.0936 22.0936 29.1148 22.2903 29.2283 22.4355L31.0184 24.726L30.9486 24.7957C30.8811 24.7733 30.811 24.7603 30.7402 24.7574H29.0069C28.6215 24.7579 28.2965 25.0433 28.2482 25.4236L28.1377 26.301L26.5669 25.0823C26.4211 24.9693 26.2231 24.9482 26.0566 25.0281C25.8007 25.1532 25.5372 25.2619 25.2673 25.3534C25.0895 25.4125 24.9615 25.5679 24.9384 25.753L24.7471 27.2698C24.6305 27.409 24.5685 27.5858 24.573 27.7669C24.549 27.8125 24.5326 27.8615 24.5243 27.9123L24.4376 28.6308H21.4499L21.094 25.7549ZM25.3345 28.9986L25.5476 29.2714L25.114 29.3251C25.2095 29.2317 25.2846 29.1199 25.3345 28.9962V28.9986ZM35.2261 31.7294L33.7568 31.9119C33.5722 31.935 33.4168 32.0606 33.3567 32.2357C33.3065 32.3814 33.2469 32.5234 33.1785 32.6615C33.0967 32.8275 33.1172 33.0256 33.2312 33.1717L34.141 34.3336L33.1756 35.2977L32.0078 34.3923C31.861 34.2788 31.6619 34.2584 31.4948 34.34C31.3563 34.4081 31.2135 34.4672 31.0671 34.5173C30.8911 34.5771 30.7647 34.7315 30.7416 34.9152L30.5549 36.3774H29.1922L29.0088 34.9152C28.9857 34.7315 28.8593 34.5771 28.6833 34.5173C28.5371 34.4672 28.3941 34.4081 28.2556 34.34C28.0886 34.2584 27.8894 34.2788 27.7426 34.3923L26.5748 35.2977L25.6061 34.3372L26.5159 33.1752C26.6299 33.0289 26.6503 32.831 26.5684 32.6648C26.5002 32.5268 26.4405 32.3847 26.3904 32.2393C26.3303 32.0641 26.1749 31.9383 25.9903 31.9154L24.5207 31.7294V30.3738L25.9903 30.1913C26.1749 30.1681 26.3303 30.0426 26.3904 29.8674C26.4405 29.7218 26.5002 29.5797 26.5684 29.4416C26.6503 29.2757 26.6299 29.0776 26.5159 28.9315L25.6061 27.7695L26.5715 26.8088L27.7393 27.7142C27.8861 27.8277 28.0852 27.848 28.2523 27.7664C28.3908 27.6984 28.5336 27.6393 28.6799 27.5894C28.856 27.5296 28.9822 27.375 29.0055 27.1913L29.1922 25.7258H30.5549L30.7383 27.188C30.7613 27.3716 30.8877 27.526 31.0638 27.5858C31.2099 27.636 31.353 27.6951 31.4915 27.7631C31.6585 27.8447 31.8576 27.8244 32.0045 27.7109L33.1723 26.8055L34.1377 27.766L33.2277 28.9279C33.1136 29.0743 33.0932 29.2721 33.1751 29.4383C33.2436 29.5764 33.303 29.7185 33.3533 29.8639C33.4135 30.039 33.5686 30.1648 33.7532 30.1877L35.2261 30.3738V31.7294Z" fill="#28553F"/>
<path d="M12.4364 10.9221C11.7819 11.8956 11.5794 13.1022 11.8807 14.2345L12.818 13.9721C12.5902 13.1187 12.7422 12.209 13.2355 11.4748C13.732 10.7916 14.4881 10.3405 15.3277 10.2268L15.2111 9.26514C14.0946 9.40863 13.0889 10.0091 12.4364 10.9221Z" fill="#28553F"/>
<path d="M10.8776 13.0072C10.6498 12.1537 10.8018 11.2441 11.2951 10.5098C11.7916 9.82661 12.5477 9.37556 13.3873 9.26185L13.2707 8.30017C12.1545 8.4439 11.1492 9.04436 10.497 9.95711C9.84241 10.9306 9.63997 12.1372 9.94125 13.2696L10.8776 13.0072Z" fill="#28553F"/>
<path d="M16.84 31.2C15.88 31.1733 15.0333 30.94 14.3 30.5C13.5667 30.06 12.9533 29.4867 12.46 28.78C11.9667 28.06 11.5933 27.2867 11.34 26.46C11.0867 25.62 10.96 24.8 10.96 24C10.96 23.1467 11.0933 22.2933 11.36 21.44C11.64 20.5867 12.0333 19.8133 12.54 19.12C13.06 18.4133 13.68 17.8533 14.4 17.44C15.12 17.0133 15.9333 16.8 16.84 16.8C17.8133 16.8 18.66 17.0267 19.38 17.48C20.1133 17.9333 20.7267 18.52 21.22 19.24C21.7133 19.96 22.08 20.74 22.32 21.58C22.5733 22.42 22.7 23.2267 22.7 24C22.7 24.8667 22.56 25.7267 22.28 26.58C22.0133 27.42 21.6267 28.1867 21.12 28.88C20.6133 29.5733 19.9933 30.1333 19.26 30.56C18.54 30.9733 17.7333 31.1867 16.84 31.2ZM12.38 24C12.4067 24.6933 12.5133 25.3933 12.7 26.1C12.9 26.7933 13.1867 27.4333 13.56 28.02C13.9333 28.5933 14.3867 29.06 14.92 29.42C15.4667 29.7667 16.1067 29.94 16.84 29.94C17.5867 29.94 18.24 29.7533 18.8 29.38C19.36 29.0067 19.82 28.52 20.18 27.92C20.5533 27.3067 20.8333 26.66 21.02 25.98C21.2067 25.2867 21.3 24.6267 21.3 24C21.3 23.3067 21.2 22.6133 21 21.92C20.8 21.2133 20.5067 20.5733 20.12 20C19.7333 19.4133 19.2667 18.9467 18.72 18.6C18.1733 18.24 17.5467 18.06 16.84 18.06C16.08 18.06 15.42 18.2533 14.86 18.64C14.3 19.0133 13.8333 19.5 13.46 20.1C13.1 20.7 12.8267 21.3467 12.64 22.04C12.4667 22.72 12.38 23.3733 12.38 24ZM29.0319 31.2C28.0185 31.2 27.1052 30.9533 26.2919 30.46C25.4919 29.9533 24.8852 29.2867 24.4719 28.46L25.3919 27.78C25.7519 28.4333 26.2585 28.96 26.9119 29.36C27.5652 29.76 28.2785 29.96 29.0519 29.96C29.7185 29.96 30.3119 29.8133 30.8319 29.52C31.3652 29.2267 31.7852 28.8267 32.0919 28.32C32.4119 27.8 32.5719 27.2 32.5719 26.52C32.5719 25.8667 32.4185 25.2933 32.1119 24.8C31.8052 24.2933 31.3985 23.9 30.8919 23.62C30.3852 23.3267 29.8119 23.18 29.1719 23.18C28.5585 23.18 27.9719 23.32 27.4119 23.6C26.8519 23.88 26.3985 24.2733 26.0519 24.78H24.7719L26.3719 16.8H33.2319V18.06H27.3919L26.3919 23.16C26.7385 22.7867 27.1652 22.5 27.6719 22.3C28.1919 22.0867 28.7452 21.98 29.3319 21.98C30.1985 21.98 30.9785 22.1733 31.6719 22.56C32.3785 22.9467 32.9319 23.48 33.3319 24.16C33.7452 24.8267 33.9519 25.6067 33.9519 26.5C33.9519 27.42 33.7319 28.24 33.2919 28.96C32.8519 29.6667 32.2585 30.22 31.5119 30.62C30.7785 31.0067 29.9519 31.2 29.0319 31.2Z" fill="white"/>
</svg>
