<svg width="47" height="46" viewBox="0 0 47 46" fill="none" xmlns="http://www.w3.org/2000/svg">
<path d="M46.5947 23C46.5947 35.7025 36.2557 46 23.5019 46C10.7482 46 0.40918 35.7025 0.40918 23C0.40918 10.2975 10.7482 0 23.5019 0C36.2557 0 46.5947 10.2975 46.5947 23Z" fill="#28553F"/>
<path d="M46.5947 23C46.5947 35.7025 36.2557 46 23.5019 46C10.7482 46 0.40918 35.7025 0.40918 23C0.40918 10.2975 10.7482 0 23.5019 0C36.2557 0 46.5947 10.2975 46.5947 23Z" stroke="#9C9C9C"/>
<path d="M28.4489 18.9465C28.4489 16.2725 26.2616 14.105 23.5633 14.105C20.8653 14.105 18.6777 16.2725 18.6777 18.9465C18.6777 21.6204 20.8653 23.788 23.5633 23.788C26.2604 23.7851 28.446 21.6192 28.4489 18.9465ZM23.5633 22.8197C21.4049 22.8197 19.6549 21.0857 19.6549 18.9465C19.6549 16.8073 21.4049 15.0733 23.5633 15.0733C25.722 15.0733 27.4718 16.8073 27.4718 18.9465C27.4694 21.0845 25.721 22.8173 23.5633 22.8197Z" fill="#28553F"/>
<path d="M36.0822 29.4345L34.7465 29.2688L35.5731 28.2159C35.81 27.9125 35.7828 27.4823 35.5097 27.2107L34.2794 25.9915C34.0055 25.7203 33.5709 25.6932 33.2648 25.9281L32.202 26.7473L32.0555 25.595L32.2411 25.4106C32.5897 25.0653 32.6243 24.5166 32.3213 24.131L30.7091 22.0737C30.7602 21.9589 30.8069 21.8475 30.8496 21.7397L33.4523 21.4182C33.9423 21.3593 34.3111 20.9473 34.3116 20.4581V17.4368C34.3104 16.9487 33.9428 16.5378 33.4538 16.4782L30.8487 16.1562C30.8064 16.0484 30.7595 15.9371 30.7079 15.8222L32.3204 13.7694C32.6248 13.3813 32.5902 12.8293 32.2397 12.4815L30.085 10.3463C29.7365 10.0009 29.1828 9.96683 28.7937 10.2668L26.7178 11.8671C26.6023 11.8165 26.4899 11.7699 26.3807 11.7276L26.0548 9.14862C25.9959 8.66304 25.581 8.29732 25.0874 8.2959H21.9387C21.4458 8.29613 21.0312 8.66209 20.9737 9.14697L20.6528 11.729C20.5467 11.7706 20.4381 11.8162 20.3262 11.8657L18.2889 10.2765C17.896 9.9699 17.3333 10.0047 16.9816 10.3574L14.8563 12.4879C14.5137 12.8326 14.4796 13.3749 14.7766 13.7593L16.3757 15.8208C16.327 15.9359 16.2781 16.0472 16.2361 16.1557L13.6695 16.4782C13.1818 16.5392 12.8156 16.9496 12.8145 17.4368V20.4581C12.8154 20.9444 13.1804 21.3546 13.6671 21.4168L16.238 21.7383C16.2805 21.8466 16.327 21.9579 16.3778 22.0733L14.7785 24.1352C14.4818 24.5196 14.5156 25.0622 14.8582 25.4071L16.9831 27.5376C17.3347 27.8906 17.8977 27.9253 18.2911 27.6185L20.3284 26.0293C20.4403 26.0778 20.5486 26.1263 20.6547 26.166L20.9751 28.7459C21.0321 29.231 21.4458 29.5974 21.9387 29.5991H24.3546C24.1668 29.7386 24.0549 29.9565 24.0516 30.1894V31.9138C24.0521 32.2972 24.34 32.6206 24.7241 32.6686L26.0598 32.8343L25.2332 33.8873C24.9963 34.1906 25.0235 34.6209 25.2967 34.8925L26.5269 36.1116C26.801 36.3823 27.2352 36.4095 27.5415 36.175L28.6043 35.3558L28.7713 36.6795C28.8197 37.0599 29.1461 37.3452 29.533 37.3457H31.2733C31.6603 37.3452 31.9866 37.0599 32.035 36.6795L32.202 35.3558L33.2648 36.175C33.5706 36.4098 34.0051 36.3828 34.2789 36.1121L35.5092 34.893C35.7828 34.6213 35.8103 34.1908 35.5731 33.8873L34.7465 32.8343L36.0822 32.6686C36.4663 32.6206 36.7542 32.2972 36.7545 31.9138V30.1894C36.754 29.8059 36.4661 29.4828 36.0822 29.4345ZM21.5882 25.7549C21.5653 25.5702 21.4375 25.4149 21.2595 25.3553C20.9921 25.2636 20.7311 25.1551 20.4777 25.03C20.3093 24.9485 20.1087 24.9697 19.9615 25.0846L17.6792 26.8577L15.5536 24.7274L17.3318 22.4336C17.444 22.2891 17.4647 22.0943 17.3857 21.93C17.2607 21.6752 17.1522 21.413 17.0608 21.1447C17.0017 20.9674 16.8452 20.8395 16.6581 20.8158L13.7916 20.4581V17.4378L16.6605 17.0796C16.8476 17.0562 17.0043 16.9281 17.0632 16.7508C17.1548 16.4825 17.2634 16.2203 17.3881 15.9654C17.4673 15.8011 17.4463 15.6063 17.3345 15.4619L15.5505 13.1685L17.6847 11.0382L19.9584 12.8118C20.1058 12.9267 20.3064 12.9479 20.4749 12.8664C20.7282 12.7413 20.9892 12.6328 21.2566 12.5411C21.4346 12.4815 21.5625 12.3264 21.5854 12.1415L21.9387 9.26422H25.0865L25.4481 12.1401C25.471 12.3255 25.5996 12.481 25.7783 12.5401C26.0493 12.6316 26.3139 12.7404 26.5708 12.8654C26.738 12.9451 26.9363 12.9243 27.0828 12.8113L29.3942 11.0295L31.5484 13.1718L29.7539 15.4614C29.6399 15.6066 29.6187 15.8033 29.699 15.969C29.8255 16.2234 29.935 16.4858 30.0275 16.7543C30.0869 16.9314 30.2442 17.0586 30.431 17.0815L33.3345 17.4368V20.4572L30.4324 20.8153C30.2456 20.8383 30.0886 20.9657 30.029 21.1428C29.9364 21.4111 29.8269 21.6735 29.7005 21.9279C29.6201 22.0936 29.6413 22.2903 29.7553 22.4355L31.5527 24.726L31.4825 24.7957C31.4148 24.7733 31.3444 24.7603 31.2733 24.7574H29.533C29.1461 24.7579 28.8197 25.0433 28.7713 25.4236L28.6604 26.301L27.0832 25.0823C26.9368 24.9693 26.738 24.9482 26.5708 25.0281C26.3139 25.1532 26.0493 25.2619 25.7783 25.3534C25.5999 25.4125 25.4713 25.5679 25.4481 25.753L25.2561 27.2698C25.139 27.409 25.0767 27.5858 25.0812 27.7669C25.0571 27.8125 25.0407 27.8615 25.0323 27.9123L24.9453 28.6308H21.9456L21.5882 25.7549ZM25.8458 28.9986L26.0598 29.2714L25.6244 29.3251C25.7203 29.2317 25.7957 29.1199 25.8458 28.9962V28.9986ZM35.7773 31.7294L34.3021 31.9119C34.1167 31.935 33.9607 32.0606 33.9003 32.2357C33.85 32.3814 33.7901 32.5234 33.7214 32.6615C33.6394 32.8275 33.6599 33.0256 33.7744 33.1717L34.6878 34.3336L33.7186 35.2977L32.546 34.3923C32.3986 34.2788 32.1987 34.2584 32.031 34.34C31.8919 34.4081 31.7485 34.4672 31.6016 34.5173C31.4248 34.5771 31.2979 34.7315 31.2747 34.9152L31.0872 36.3774H29.7191L29.5349 34.9152C29.5118 34.7315 29.3849 34.5771 29.2081 34.5173C29.0614 34.4672 28.9178 34.4081 28.7787 34.34C28.611 34.2584 28.4111 34.2788 28.2636 34.3923L27.0911 35.2977L26.1185 34.3372L27.0319 33.1752C27.1465 33.0289 27.167 32.831 27.0847 32.6648C27.0162 32.5268 26.9563 32.3847 26.906 32.2393C26.8456 32.0641 26.6896 31.9383 26.5042 31.9154L25.0288 31.7294V30.3738L26.5042 30.1913C26.6896 30.1681 26.8456 30.0426 26.906 29.8674C26.9563 29.7218 27.0162 29.5797 27.0847 29.4416C27.167 29.2757 27.1465 29.0776 27.0319 28.9315L26.1185 27.7695L27.0878 26.8088L28.2603 27.7142C28.4077 27.8277 28.6076 27.848 28.7753 27.7664C28.9144 27.6984 29.0578 27.6393 29.2048 27.5894C29.3815 27.5296 29.5082 27.375 29.5316 27.1913L29.7191 25.7258H31.0872L31.2714 27.188C31.2945 27.3716 31.4215 27.526 31.5982 27.5858C31.7449 27.636 31.8886 27.6951 32.0276 27.7631C32.1953 27.8447 32.3953 27.8244 32.5427 27.7109L33.7152 26.8055L34.6845 27.766L33.7708 28.9279C33.6563 29.0743 33.6358 29.2721 33.7181 29.4383C33.7868 29.5764 33.8464 29.7185 33.897 29.8639C33.9574 30.039 34.1131 30.1648 34.2985 30.1877L35.7773 30.3738V31.7294Z" fill="#28553F"/>
<path d="M12.8953 10.9221C12.2381 11.8956 12.0348 13.1022 12.3373 14.2345L13.2784 13.9721C13.0496 13.1187 13.2023 12.209 13.6975 11.4748C14.1961 10.7916 14.9552 10.3405 15.7982 10.2268L15.6811 9.26514C14.5601 9.40863 13.5504 10.0091 12.8953 10.9221Z" fill="#28553F"/>
<path d="M11.3302 13.0073C11.1014 12.1539 11.2541 11.2442 11.7493 10.5099C12.2479 9.82674 13.007 9.37568 13.85 9.26197L13.7329 8.30029C12.6122 8.44403 11.6028 9.04448 10.948 9.95723C10.2908 10.9307 10.0876 12.1373 10.39 13.2697L11.3302 13.0073Z" fill="#28553F"/>
<path d="M17.2902 31.2C16.3302 31.1733 15.4835 30.94 14.7502 30.5C14.0169 30.06 13.4035 29.4867 12.9102 28.78C12.4169 28.06 12.0435 27.2867 11.7902 26.46C11.5369 25.62 11.4102 24.8 11.4102 24C11.4102 23.1467 11.5435 22.2933 11.8102 21.44C12.0902 20.5867 12.4835 19.8133 12.9902 19.12C13.5102 18.4133 14.1302 17.8533 14.8502 17.44C15.5702 17.0133 16.3835 16.8 17.2902 16.8C18.2635 16.8 19.1102 17.0267 19.8302 17.48C20.5635 17.9333 21.1769 18.52 21.6702 19.24C22.1635 19.96 22.5302 20.74 22.7702 21.58C23.0235 22.42 23.1502 23.2267 23.1502 24C23.1502 24.8667 23.0102 25.7267 22.7302 26.58C22.4635 27.42 22.0769 28.1867 21.5702 28.88C21.0635 29.5733 20.4435 30.1333 19.7102 30.56C18.9902 30.9733 18.1835 31.1867 17.2902 31.2ZM12.8302 24C12.8569 24.6933 12.9635 25.3933 13.1502 26.1C13.3502 26.7933 13.6369 27.4333 14.0102 28.02C14.3835 28.5933 14.8369 29.06 15.3702 29.42C15.9169 29.7667 16.5569 29.94 17.2902 29.94C18.0369 29.94 18.6902 29.7533 19.2502 29.38C19.8102 29.0067 20.2702 28.52 20.6302 27.92C21.0035 27.3067 21.2835 26.66 21.4702 25.98C21.6569 25.2867 21.7502 24.6267 21.7502 24C21.7502 23.3067 21.6502 22.6133 21.4502 21.92C21.2502 21.2133 20.9569 20.5733 20.5702 20C20.1835 19.4133 19.7169 18.9467 19.1702 18.6C18.6235 18.24 17.9969 18.06 17.2902 18.06C16.5302 18.06 15.8702 18.2533 15.3102 18.64C14.7502 19.0133 14.2835 19.5 13.9102 20.1C13.5502 20.7 13.2769 21.3467 13.0902 22.04C12.9169 22.72 12.8302 23.3733 12.8302 24ZM35.3021 26.32C35.3021 25.4267 35.0821 24.62 34.6421 23.9C34.2154 23.1667 33.6287 22.5867 32.8821 22.16C32.1487 21.7333 31.3287 21.52 30.4221 21.52C29.8221 21.52 29.2554 21.6267 28.7221 21.84C28.2021 22.0533 27.7487 22.3533 27.3621 22.74C26.9754 23.1267 26.6821 23.58 26.4821 24.1C26.4821 22.7933 26.6421 21.68 26.9621 20.76C27.2954 19.84 27.7554 19.1333 28.3421 18.64C28.9287 18.1467 29.6154 17.9 30.4021 17.9C31.1487 17.9 31.8221 18.1067 32.4221 18.52C33.0354 18.92 33.4821 19.46 33.7621 20.14L34.6421 19.34C34.2554 18.5267 33.6887 17.8867 32.9421 17.42C32.1954 16.94 31.3487 16.7 30.4021 16.7C29.3621 16.7 28.4487 17.0133 27.6621 17.64C26.8754 18.2667 26.2621 19.2133 25.8221 20.48C25.3821 21.7333 25.1621 23.3267 25.1621 25.26C25.1621 26.4867 25.3821 27.5467 25.8221 28.44C26.2621 29.3333 26.8621 30.02 27.6221 30.5C28.3954 30.9667 29.2754 31.2 30.2621 31.2C31.2087 31.2 32.0621 30.98 32.8221 30.54C33.5821 30.1 34.1821 29.5133 34.6221 28.78C35.0754 28.0333 35.3021 27.2133 35.3021 26.32ZM30.3021 30C29.6221 30 29.0021 29.8333 28.4421 29.5C27.8821 29.1667 27.4287 28.72 27.0821 28.16C26.7487 27.6 26.5821 26.9867 26.5821 26.32C26.5821 25.64 26.7487 25.0267 27.0821 24.48C27.4154 23.92 27.8621 23.4733 28.4221 23.14C28.9954 22.8067 29.6221 22.64 30.3021 22.64C30.9687 22.64 31.5821 22.8067 32.1421 23.14C32.7021 23.4733 33.1487 23.92 33.4821 24.48C33.8287 25.04 34.0021 25.6533 34.0021 26.32C34.0021 26.9867 33.8287 27.6 33.4821 28.16C33.1487 28.72 32.7021 29.1667 32.1421 29.5C31.5821 29.8333 30.9687 30 30.3021 30Z" fill="white"/>
</svg>
